<?xml version="1.0" standalone="no"?>
<!DOCTYPE svg PUBLIC "-//W3C//DTD SVG 1.1//EN" "http://www.w3.org/Graphics/SVG/1.1/DTD/svg11.dtd" >
<svg xmlns="http://www.w3.org/2000/svg">
<metadata></metadata>
<defs>
<font id="devlys_010normal" horiz-adv-x="1572" >
<font-face units-per-em="2048" ascent="1638" descent="-410" />
<missing-glyph horiz-adv-x="776" />
<glyph horiz-adv-x="0" />
<glyph unicode="&#xd;" horiz-adv-x="776" />
<glyph unicode=" "  horiz-adv-x="776" />
<glyph unicode="&#x09;" horiz-adv-x="776" />
<glyph unicode="&#xa0;" horiz-adv-x="776" />
<glyph unicode="!" horiz-adv-x="614" d="M332 1372h125l-17 -1012h-92zM336 0v125h129v-125h-129z" />
<glyph unicode="&#x22;" horiz-adv-x="468" d="M0 973v84h479v-84h-190l375 -389v-207q-33 -37 -86 -60q-47 -18 -107 -18q-66 0 -113 16.5t-97 54.5t-73.5 89t-23.5 106v408h-164zM272 563q0 -45 13.5 -75.5t40 -51t61.5 -37.5q35 -10 72 -10l55 6l55 19l47 30l35 41l-379 404v-326z" />
<glyph unicode="#" horiz-adv-x="1107" d="M0 973v84h1124v-84h-532v-256l31 16l26 15l70 24q25 6 65 10q45 0 90.5 -19.5t77.5 -51.5q29 -33 54 -80q18 -41 18 -88q0 -59 -23 -117q-18 -55 -63 -119l-37 -47l-49 -53l-76 69l41 39l31 35q12 16 27.5 45t25.5 54q18 49 19 102q0 41 -9.5 64.5t-31.5 46.5 q-20 16 -47 25t-60 9t-55.5 -3t-44.5 -15q-27 -6 -45 -23l-39 -32q-2 -10 -4 -13l-2 -10l-4 -10l-5 -6q-12 -20 -38 -37l-56 -25l-26 -6l-31 -2q-18 0 -29 -4h-20l12 -25l39 -57l49 -74l47 -61l55 -70l76 -86l49 -55l31 -33l-88 -57l-53 55l-72 86l-94 117l-88 125l-100 147 l-72 121l-21 39l-18 41l88 45l76 -131l16 -19l29 -16l33 -12l32 -4q27 2 44.5 13t31.5 32l6 31l2 53v258h-483z" />
<glyph unicode="$" horiz-adv-x="1132" d="M29 479v88h483v490h88v-490h487v-88h-487v-479h-88v479h-483z" />
<glyph unicode="%" horiz-adv-x="344" d="M104 164v139h144v-139h-144zM104 752v137h144v-137h-144z" />
<glyph unicode="&#x26;" horiz-adv-x="1132" d="M29 479v88h1050v-88h-1050z" />
<glyph unicode="'" horiz-adv-x="759" d="M0 973v84h760v-84h-152q25 -25 43 -55l33 -60l18 -63l9 -66q0 -76 -29 -139q-25 -63 -79 -122.5t-121.5 -88.5t-145.5 -29l340 -282l-72 -72l-491 416l71 71l68 -55l12 -4h12l54 2q31 4 57.5 12t56.5 25l64 43l49 51l33 55l10 43l4 60l-31 -27l-24 -18q-35 -25 -70 -37 q-20 -6 -63 -10q-53 0 -92 15t-73 47t-56 73q-16 39 -17 82q0 37 13.5 66.5t44.5 64.5zM289 850q0 -29 9 -54.5t27.5 -44t44 -29.5t58.5 -11q35 0 65.5 13t59.5 42l16 22l23 33l-19 43q-6 20 -16 33q-23 35 -60.5 56.5t-76.5 21.5q-35 0 -55 -10q-23 -6 -41.5 -25.5 t-26.5 -42.5z" />
<glyph unicode="(" horiz-adv-x="368" d="M68 -193l92 310h137l-137 -310h-92zM168 541v118h131v-118h-131z" />
<glyph unicode=")" horiz-adv-x="1280" d="M0 973v84h1288v-84h-217v-281h-399q-29 0 -60 -12q-25 -6 -43 -25q-16 -12 -28 -45l-9 -63q0 -57 21.5 -100.5t67.5 -79.5q39 -31 94 -54q55 -16 112 -16l23 2l31 4l24 4l10 2l-2 19q0 16 11 37q14 53 43.5 82.5t68.5 29.5q23 0 39 -8q16 -4 29 -18l16 -33q6 -16 6 -39 q0 -27 -7 -49.5t-22.5 -45t-37.5 -36.5q-12 -6 -43 -10l8 -37l6 -25l14 -59l17 -51l88 -234h-113l-55 176q-6 -18 -41 -39l-88 -43l-86 -24q-47 -10 -86 -11q-70 0 -121 26t-88 81l-20 41l-19 63l-104 9l-72 14q-86 25 -133 78q-43 53 -43 131q0 45 11 73.5t32 59.5 q20 25 51 41q37 14 70 14q35 0 57 -10q27 -6 53 -27l29 -32l12 -11l-55 -51l-16 12l-11 11l-32 18l-33 6l-35 -6l-23 -16l-14 -29l-8 -33q0 -49 30.5 -86t98.5 -61l102 -29q10 -2 17.5 -2h9.5q16 0 23 6l6 13l6 10l14 22q6 12 17 21l16 14l22 17l21 12l16 6l-43 35l-26 33 q-31 39 -54 88q-8 23 -12 43t-4 51q0 55 14 96q12 45 41 70q29 29 66 43q18 6 38.5 10t45.5 4l332 2v201h-965zM528 102q0 -31 11.5 -52t33.5 -42l52 -22q20 -6 63 -11q33 0 76 13q14 4 43 14t49 21l76 43l33 28l-33 133l-14 -4l-33 -2q-23 0 -35 -4h-23l-43 2l-51 10l-22 4 l-31 9l-45 -15l-31 -12q-35 -18 -55.5 -48t-20.5 -65z" />
<glyph unicode="*" horiz-adv-x="415" d="M104 920l89 292h118l-118 -292h-89z" />
<glyph unicode="+" horiz-adv-x="4" d="M-528 -117h120v-114h-120v114z" />
<glyph unicode="," horiz-adv-x="911" d="M0 973v84h915v-84h-139v-385q0 -33 -10 -57.5t-33 -47.5q-18 -23 -47 -39l-53 -22l-78 61q23 0 41 9.5t37 29.5l24 43q6 14 11 45v363h-387v-504l467 -436l14 -19l10 -14q12 -16 19 -37l6 -43q0 -41 -18.5 -66.5t-59.5 -48.5l-33 -8l-45 -12l-92 90l14 -4l33 -2l12 2h13 l10 4l12 2q14 4 19 8l18 15l2 6l4 6l2 8l2 8q0 12 -7 27.5t-24 28.5l-6 6l-10 6l-475 448v529h-168z" />
<glyph unicode="-" horiz-adv-x="344" d="M104 0v135h144v-135h-144z" />
<glyph unicode="." horiz-adv-x="739" d="M0 973v84h756v-84h-80v-357q0 -20 -1 -43.5t-15.5 -62.5t-47 -79t-79 -56.5t-101.5 -16.5q-37 0 -54.5 2t-45.5 15q-41 18 -80 54t-57.5 80t-18.5 97v367h-176zM285 608q0 -35 9 -66.5t26.5 -55t43 -38t60.5 -14.5q37 0 63.5 12.5t49.5 45.5q12 18 22 53l8 69v359h-282 v-365z" />
<glyph unicode="/" horiz-adv-x="559" d="M16 846q0 43 14.5 81t41 66.5t65.5 44t86 15.5q35 0 69 -11.5t62.5 -34t43 -53t14.5 -61.5v-62h-93v64q0 37 -22.5 59.5t-69.5 22.5q-27 0 -44 -10.5t-31 -28.5l-21 -41l-6 -47q0 -43 12.5 -77t30.5 -57.5t26.5 -32.5t32 -28.5t49.5 -19.5l70 20l80 9l37 -2l41 -5l45 -77 l-137 -7q-49 0 -80 -10q-61 -14 -94 -52t-33 -97q0 -31 12 -55.5t38 -44t58 -31.5l64 -9q66 0 124 22.5t128 74.5l45 41l53 57v-109q0 -13 -29 -36l-73 -52q-61 -41 -131 -61q-29 -8 -67 -14.5t-71 -6.5q-51 0 -95 15.5t-86 47.5t-62.5 74t-20.5 83q0 33 12.5 66.5 t38.5 66.5l21 20l33 27q-25 12 -66 43q-27 23 -59 63l-41 74q-14 43 -15 76zM508 973v84h61v-84h-61z" />
<glyph unicode="0" horiz-adv-x="796" d="M59 504q0 41 0.5 72t8.5 90q10 80 28 131l21 51l26 45l29 41l35 35q39 29 86 44t100 15q49 0 80 -10q35 -6 66 -25q31 -12 57 -39l47 -55l35 -76l29 -82l16 -102l6 -135v-23q0 -39 -2 -74.5t-8 -74.5t-11.5 -62.5t-15.5 -53.5t-22.5 -56.5t-26.5 -46.5q-23 -35 -59.5 -69 t-83.5 -46q-23 -6 -49.5 -10t-57.5 -4q-74 0 -135 24q-57 27 -98 78q-47 59 -74 165.5t-27 252.5zM188 504q1 -129 15 -209q12 -80 41.5 -123t68.5 -68q41 -20 80 -20q43 0 78 20q39 18 68 64q31 41 46 128t15 208q0 135 -16 209q-12 82 -44 125t-68 64.5t-79 21.5 q-41 0 -75.5 -18.5t-63.5 -55.5q-31 -47 -49 -133q-8 -45 -12.5 -93.5t-4.5 -119.5z" />
<glyph unicode="1" horiz-adv-x="796" d="M156 649v123q45 16 96 49l84 68q39 33 70 69l47 70l82 2v-1030h-127v803q-18 -20 -52 -45l-67 -43l-35 -23l-33 -16l-33 -14z" />
<glyph unicode="2" horiz-adv-x="796" d="M43 0q0 29 4 43l12 43q8 29 31 64q16 31 51 71l31 37l35 35l43 37l55 47q86 70 135 119l88 94q29 37 45 80q8 18 12.5 35.5t4.5 39.5q0 39 -13.5 68t-39 56.5t-63.5 41t-77 13.5q-45 0 -80.5 -13.5t-61.5 -39t-44 -68.5q-14 -43 -14 -86l-129 16q6 66 30.5 122t67.5 97 q43 37 104.5 56.5t128.5 19.5q76 0 131.5 -19.5t100.5 -59.5t66.5 -92t21.5 -114l-2 -34l-2 -27q0 -12 -8 -27l-11 -28l-16 -33l-21 -33l-24 -35l-25 -28l-82 -84l-110 -99l-94 -77l-54 -52l-53 -65h504v-121h-678z" />
<glyph unicode="3" horiz-adv-x="796" d="M59 268l127 21q6 -35 11.5 -54.5t20.5 -51t39 -52t60 -37.5q23 -6 33 -8t37 -2q45 0 82 15.5t66.5 45t46 68.5t16.5 84t-14 80q-12 39 -41 63l-33 25l-33 18l-37 11l-43 4q-27 0 -43 -4l-47 -11l15 113l20 -2h39q25 6 37 8q37 14 68.5 34.5t48 52.5t16.5 75q0 33 -12 63 q-8 29 -31 50.5t-54.5 34t-68.5 12.5q-35 0 -68.5 -11.5t-56.5 -33.5q-23 -18 -41 -58q-10 -27 -20 -80l-125 23q10 61 34.5 108.5t66.5 83t92 54t114 18.5q47 0 80 -10q37 -6 72.5 -24.5t61.5 -42t48 -58.5q6 -10 12.5 -21.5t14.5 -38t10 -37t2 -34.5q0 -35 -10 -64 q-6 -29 -26.5 -56.5t-45.5 -49.5q-29 -20 -59 -37q49 -14 80 -35q35 -18 60.5 -52t37.5 -79q6 -20 10 -41.5t4 -46.5q0 -66 -24.5 -123t-73.5 -106q-49 -43 -112.5 -66.5t-135.5 -23.5q-66 0 -124 18t-101 59q-20 18 -38 41t-34 52q-25 53 -31 116z" />
<glyph unicode="4" horiz-adv-x="796" d="M18 246v114l467 666h105v-666h139v-114h-139v-246h-127v246h-445zM141 360h322v463z" />
<glyph unicode="5" horiz-adv-x="796" d="M59 268l134 11q6 -47 22 -83t43 -63t60.5 -38t70.5 -11q47 0 82 17.5t72 50.5q27 31 45 77.5t18 104.5q0 55 -16 94q-12 43 -43 73.5t-72 48t-88 17.5h-25.5t-36 -7t-49.5 -21l-22 -17l-21 -14l-18 -19l-14 -20l-119 16l98 527h510v-121h-407l-56 -275l45 25l47 21l48 12 l53 4q39 0 65.5 -4t69.5 -21.5t90 -63.5t70.5 -108.5t23.5 -134.5q0 -70 -19.5 -131t-62.5 -111q-49 -61 -116.5 -90.5t-151.5 -29.5q-68 0 -126 18t-101 57t-72 93q-25 53 -31 116z" />
<glyph unicode="6" horiz-adv-x="796" d="M55 477q0 154 25.5 259.5t83.5 174.5q45 57 111.5 87t146.5 30q39 0 57.5 -2t59.5 -16.5t77.5 -46t65.5 -82.5q23 -43 33 -107l-127 -8l-8 27l-7 20l-14 31l-18 26q-23 23 -56 39q-37 14 -71 15q-33 0 -57.5 -7.5t-50 -26t-52.5 -52.5q-10 -16 -14 -25q-12 -23 -25 -49 l-16 -47l-11 -55l-8 -66l-2 -70q18 29 47 57.5t62 45.5l69 24q25 6 35 8.5t37 2.5q61 0 115.5 -24t97.5 -69t68 -110q10 -27 16 -60.5t6 -70.5q0 -16 -1 -37t-9 -57.5t-28.5 -80.5t-53.5 -77q-25 -27 -64 -53q-39 -20 -76.5 -29.5t-57 -10.5t-31.5 -1q-80 0 -142.5 26.5 t-114 84t-75.5 153.5q-10 43 -16.5 102.5t-6.5 126.5zM199 330l2 -35l4 -29l8 -30l14 -31l31 -49l43 -39l51 -25l56 -8q41 0 75.5 15.5t62 47t42.5 74.5q6 23 10 46.5t4 56.5q0 51 -14 92q-12 45 -41 74.5t-67 46t-77 16.5q-47 0 -79 -16q-33 -12 -64 -43t-47 -76 q-6 -20 -10 -42t-4 -46z" />
<glyph unicode="7" horiz-adv-x="796" d="M68 891v123h665v-99l-49 -57l-47 -63l-49 -74l-49 -86l-50 -90l-38 -86l-17 -43l-16 -41l-15 -43l-12 -43l-22 -80l-15 -72l-10 -69l-2 -68h-131q0 27 2 59.5t8 66.5t14.5 78t20.5 85q23 84 55 166q20 53 35.5 85.5t42.5 80.5l43 75l43 70l45 65l51 58z" />
<glyph unicode="8" horiz-adv-x="796" d="M59 295l2 49q0 25 9 43l6 19l10 20l10 18l13 19q23 29 58.5 52.5t86.5 39.5q-14 4 -26.5 10.5t-41.5 22.5q-31 20 -49 48t-31 60l-8 68q0 35 4 53l15 47l24 45l37 43q41 37 96.5 56.5t118.5 19.5q70 0 125 -19.5t94 -58.5q37 -33 58.5 -85t21.5 -105q0 -37 -10 -66 q-6 -31 -27 -59q-8 -10 -19 -21.5t-33.5 -28t-61.5 -30.5q49 -12 82 -41q39 -25 63 -59q18 -29 32.5 -73t14.5 -91q0 -39 -4 -65.5t-18 -59.5q-23 -57 -70 -98q-41 -41 -107.5 -62.5t-138.5 -21.5q-76 0 -136 19.5t-104 64.5t-73 102q-23 57 -23 125zM188 295l7 -53l18 -52 l31 -47l43 -32l51 -21l59 -6q47 0 83 13.5t65.5 44t44 70.5t14.5 79q0 47 -16 82q-12 39 -44 67.5t-71 44t-80 15.5q-47 0 -82 -17q-33 -10 -63.5 -40.5t-45 -70.5t-14.5 -77zM227 768q1 -39 11 -68q12 -27 35.5 -52t50 -33.5t37 -10.5t36.5 -2q39 0 65.5 10.5t53.5 36.5 q16 16 35 49q12 29 12 62t-11 60.5t-38 56.5q-12 10 -22.5 16t-36 18.5t-60.5 12.5q-37 0 -67.5 -12.5t-54 -35t-33 -46t-13.5 -62.5z" />
<glyph unicode="9" horiz-adv-x="796" d="M59 682q0 43 4.5 72.5t18.5 66.5q25 63 69 108.5t102 72t130 26.5q33 0 49 -4q27 0 45 -8q29 -8 43 -17l45 -24q39 -25 72 -66q27 -33 53 -88q20 -47 31.5 -122.5t11.5 -166.5v-24q0 -39 -2 -78t-7 -75t-13.5 -69.5t-20.5 -66.5q-18 -57 -53 -102q-31 -45 -73 -76 t-91 -43q-27 -6 -51.5 -10t-54.5 -4q-41 0 -60.5 2t-50.5 14q-51 12 -86 47q-35 29 -57.5 75t-34.5 114l121 12q6 -45 22 -78q12 -33 31.5 -48.5t52.5 -29.5l66 -8l55 6q27 6 47 23l39 30q18 16 31 37l12 23l12 28l11 31l12 39l14 76l4 78v28q-18 -31 -43.5 -56.5 t-58.5 -42.5t-70 -30l-74 -8q-66 0 -116.5 22.5t-98.5 67.5q-45 47 -67 109q-20 68 -21 137zM188 678q0 -49 13.5 -88t43 -70t68.5 -49q43 -14 80 -14q45 0 81 13t63.5 45t42 79t14.5 94q0 53 -14 96q-12 41 -39 73t-66 49.5t-78 17.5q-29 0 -40 -2t-42.5 -15.5t-61.5 -48.5 t-50 -84q-6 -20 -10.5 -44.5t-4.5 -51.5z" />
<glyph unicode=":" horiz-adv-x="1304" d="M0 973v84h1300v-84h-688v-256h248l58 22l57 9q51 0 98 -25t84 -73t58.5 -108.5t21.5 -115.5q0 -90 -19.5 -166t-58.5 -151l-16 -29l-23 -31l-88 55l35 50l25 43q31 57 45 114q8 29 12 54.5t4 56.5q0 51 -13.5 87t-38 68.5t-57 48t-71.5 15.5q-35 0 -55 -10 q-23 -6 -40.5 -23.5t-25.5 -40.5l-8 -49q0 -37 11 -64.5t34 -50.5l18 -16l29 -16l-55 -82q-29 12 -50.5 32.5t-40 55.5t-26.5 67l-8 72l6 57l18 54l-188 2l-4 -17l-4 -10q-12 -31 -38 -49t-71 -35l-22 -4l-31 -2h-16h-15l-10 -2h-8l12 -25l39 -57l49 -74l47 -61l55 -70 l76 -86l49 -55l31 -33l-88 -57l-53 55l-72 86l-94 117l-88 125l-100 147l-72 121l-21 39l-18 41l88 45l76 -131q23 -27 43 -35t59 -12q27 0 45.5 7t34.5 23.5t25 38.5l8 56v258h-504z" />
<glyph unicode=";" horiz-adv-x="1032" d="M0 973v84h1036v-84h-147v-973h-109v315q-53 -45 -116.5 -68.5t-133.5 -23.5q-80 0 -148.5 24.5t-121.5 76.5q-61 53 -91 122.5t-30 155.5l17 -6l18 -6q14 -2 19 -4h20q41 0 69.5 9t55.5 31.5t40 58.5t13 77q0 33 -13 67.5t-38 75.5l-23 29l-28 37zM264 510l6 -21l9 -16 l6 -16l6 -13q41 -76 96 -111.5t129 -35.5q41 0 81 12.5t71.5 34t41 29.5t25.5 26l45 64v510h-360l24 -41l17 -31l33 -80l10 -63q0 -70 -29 -121t-90 -88l-51 -21z" />
<glyph unicode="&#x3c;" horiz-adv-x="1007" d="M0 973v84h1049v-84h-261v-309h-368q-27 0 -39 -3.5t-37 -14.5t-51.5 -35.5t-39.5 -57.5t-13 -76q0 -96 43 -176q43 -74 129 -123l71 -33l101 -26l-15 14l-10 12q-14 18 -19 28.5t-22 45.5q-14 47 -14 86q0 47 12 80t43 59.5t67 39t76 12.5q45 0 81 -13.5t67 -38t49 -65.5 q8 -16 12 -35.5t4 -46.5q0 -61 -24.5 -108.5t-70.5 -81t-101 -52.5q-29 -6 -55.5 -10t-59.5 -4q-90 0 -168 28.5t-150.5 91t-117.5 142.5q-37 78 -37 170q0 57 18.5 104.5t57.5 85t87 56t105 18.5l281 2v234h-680zM596 297q0 -47 11 -79t34 -56l18 -17l29 -16 q27 0 48.5 12.5t39 39t24.5 50t11 66.5l-6 47l-19 39q-12 16 -31.5 25.5t-39.5 9.5q-31 0 -51 -10q-18 -6 -37 -25l-23 -39z" />
<glyph unicode="=" horiz-adv-x="1073" d="M-4 973v84h1100v-84h-148v-973l-106 2v381l-490 -291l-63 92l508 265l-68 65l-49 47q-59 57 -105.5 87t-64.5 30q-16 0 -34.5 -2t-54.5 -13.5t-108 -48.5l-59 -30l-78 -41l-63 82q10 4 16 8q39 23 47 26l178 74l103 37q43 12 63 12q29 0 73 -28.5t103 -87.5l58 -60 l88 -94v461h-846z" />
<glyph unicode="&#x3e;" horiz-adv-x="1204" d="M0 973v84h1229v-84h-168v-973h-109v424h-219l-2 -59q0 -53 -19.5 -96.5t-60.5 -78.5q-49 -43 -97 -65.5t-89 -22.5l94 -59l109 -47l-64 -80l-129 80l-31 18l-36 27l-33 27l-19 18l-49 2h-69q-25 2 -51.5 13.5t-43.5 33.5q-10 18 -14 55l6 31l19 31l26 18l33 9q20 0 31 -5 q14 0 30 -10l29 -16l31 -23l20 -22l27 -33l70 14q35 6 51 17q63 29 93 71.5t30 106.5q0 23 -4 31l-13 20l-18 12l-25 4l-35 -4l-47 -12l-47 -12l-28 -4l-46 6q-23 6 -45 19.5t-47 33.5l-45 47q-43 53 -67 98q-23 49 -23 84q0 29 11.5 47.5t31.5 30.5l29 11l37 4l305 2v176 h-549zM246 692l2 -20l10 -23l21 -35l36 -45l25 -26l27 -17l26 -8l35 -2l33 2q25 0 55 8l53 9l35 4q25 0 45 -11q23 -6 51 -24l9 -8l14 -11l229 2v486h-297v-260h-391l-14 -11z" />
<glyph unicode="?" horiz-adv-x="663" d="M0 973v84h668v-84h-320l-24 -23l-17 -16l-33 -53q-6 -16 -10 -56q0 -31 12.5 -55.5t40.5 -46.5q14 -12 23.5 -17.5t21.5 -11.5l50 -8l176 2l37 -76h-113q-31 0 -66 -14q-33 -10 -63.5 -32.5t-49 -57.5t-18.5 -74q0 -35 13.5 -60.5t43 -46t64.5 -32.5l76 -8q49 0 104 18 q31 10 55.5 21.5t65.5 33.5l82 52q27 20 33 34v-110l-66 -41l-51 -27q-68 -31 -129 -48t-110 -17q-20 0 -44 1t-61 15q-47 14 -92 47t-70 76q-20 45 -20 92q0 37 13.5 72t43.5 69l23 23l35 29l-50 20l-32 21q-41 29 -61.5 67.5t-20.5 81.5l4 41l14 47l21 41l20 25z" />
<glyph unicode="@" horiz-adv-x="1599" d="M258 -227l1024 1474l72 -51l-1041 -1493z" />
<glyph unicode="A" horiz-adv-x="811" d="M596 -109v1196h109v-1196h-109z" />
<glyph unicode="B" horiz-adv-x="1007" d="M0 973v84h1012v-84h-219v-305h-385q-41 0 -68 -17q-27 -12 -48.5 -37.5t-37.5 -66.5q-10 -35 -10 -74q0 -66 24.5 -124t77.5 -107q43 -41 98 -70q53 -22 106 -22h5q55 0 99 15t81 46t56.5 73t19.5 87q0 37 -10 66.5t-33 62.5l-18 20l-25 27l72 69q14 0 37 -24l45 -66 q16 -31 24 -65.5t10 -47t2 -42.5q0 -70 -25.5 -122t-74.5 -94t-117.5 -63.5t-142.5 -21.5q-84 0 -157.5 29.5t-134 87t-97.5 132.5q-31 72 -31 158q0 66 19.5 115t62.5 87t93 56.5t114 18.5l264 2v217h-688z" />
<glyph unicode="C" horiz-adv-x="471" d="M0 973v84h512v-84h-512zM131 510q0 59 21.5 109.5t64.5 93.5t94 64.5t109 21.5l47 -4q27 0 51 -9l10 -4l17 -4l14 -90q-10 12 -39 21l-53 8q-31 0 -47 -4l-45 -13q-20 -6 -41 -20q-20 -10 -31 -23l340 -233l12 29v-142q-18 -25 -47 -45l-53 -26q-25 -12 -57 -19l-60 -4 q-59 0 -113.5 18.5t-97.5 59.5q-49 41 -73 94q-23 57 -23 121zM236 510q0 -45 13 -83t46 -67q29 -33 65 -49q43 -14 80 -14h33q16 6 23 8q25 8 30.5 11t24.5 18l20 14l25 23l-336 237l-8 -20l-4 -15l-10 -36z" />
<glyph unicode="D" horiz-adv-x="860" d="M0 973v84h864v-84h-133v-309l49 41l45 32l29 15l29 12l26 6l29 2q20 0 37.5 -4t28.5 -10l10 -74l-13 2l-18 2l-35 -4l-53 -12q-31 -6 -59.5 -28.5t-54 -60.5t-38 -74t-12.5 -71v-438h-106v303q-35 -35 -85.5 -55.5t-105.5 -20.5q-53 0 -105.5 18.5t-95.5 57.5t-71 92 q-23 51 -23 115q0 57 20.5 104.5t65.5 90.5t94 63q23 8 50.5 14t56.5 6l55 -6l51 -16v-86l-47 16l-45 6q-39 0 -69.5 -13t-56 -38.5t-44.5 -62.5q-12 -31 -18 -74q0 -37 12 -77t38 -69.5t58 -48.5q37 -14 72 -14q37 0 64.5 11.5t56.5 35.5l27.5 27.5t25.5 30.5q18 29 19 53 v510h-625z" />
<glyph unicode="E" horiz-adv-x="563" d="M0 973v84h580v-84h-215v-365h360v-88h-360v-147v-8l-3 -15v-8q-6 -10 -10 -14l-33 -4q-20 0 -49 22l-69 74l-60 80q-16 31 -20 55l6 23q8 10 23 18l10 4l20 6l80 2v365h-260z" />
<glyph unicode="F" horiz-adv-x="688" d="M37 565q31 -14 78 -28l90 -9q59 0 106 13.5t90 43t67 78t24 103.5q0 41 -13.5 76t-42.5 65q-23 29 -60.5 45.5t-76.5 16.5q-33 0 -53.5 -7.5t-40 -22.5t-29.5 -40l-8 -45q0 -33 14.5 -53.5t50.5 -36.5l27 -8l39 -6v-86h-27q-14 0 -40.5 3t-49.5 13q-55 20 -90 68 q-29 45 -29 110q0 39 18.5 75t53.5 62.5t80 42.5q23 6 41 10.5t43 4.5q63 0 115 -23q49 -16 94 -59t66.5 -95.5t21.5 -109.5q0 -76 -24.5 -129t-75.5 -98q-45 -35 -121 -60q-76 -20 -160 -20l-22 2q12 -31 43 -62l71 -53q39 -23 84 -37t92 -14q76 0 147.5 30.5t135.5 94.5 l47 51l51 76v-160l-57 -53l-47 -35l-68 -39l-65 -27l-68 -18l-67 -4q-102 0 -191.5 44t-161.5 132q-27 31 -49 72z" />
<glyph unicode="G" horiz-adv-x="1204" d="M0 973v84h1200v-84h-264v-213l33 -19l26 -14q66 -43 99 -117q34 -68 34 -159v-5q0 -45 -2 -64.5t-16 -66.5t-47 -91t-84 -77q-47 -24 -110 -24h-5q-49 0 -82.5 11t-65.5 33.5t-61 57.5q-18 27 -34 72q-6 -20 -14.5 -38.5t-20.5 -37.5q-18 -31 -51 -57.5t-72 -39.5 t-82 -13q-61 0 -110.5 24.5t-83 70.5t-52.5 101q-16 59 -16 121q0 45 2 64.5t14 56.5q20 59 54 108.5t83.5 73t114.5 23.5q45 0 80 -10.5t63 -32.5q33 -18 55.5 -49t39.5 -72l39 61l22 33q12 12 19 16q25 25 57.5 38.5t64.5 19.5v215h-827zM227 375q6 -27 9 -37 q10 -45 28.5 -77t50 -49t70.5 -17q47 0 87 29.5t71 92.5l18 52l19 73l-19 66q-6 25 -18 47q-29 57 -69 86t-89 29q-39 0 -65.5 -16.5t-46 -47.5t-35.5 -78q-8 -37 -9.5 -57t-1.5 -33v-63zM676 414l12 -49q23 -80 68 -123q45 -39 112 -39q39 0 68 18.5t49 59.5q12 29 19 69 l8 92v58q-6 22 -8 30q-6 43 -23 70q-18 37 -50 55.5t-75 18.5t-78 -29q-33 -23 -63 -80q-12 -23 -18.5 -36t-16.5 -40l-4 -47v-28z" />
<glyph unicode="H" horiz-adv-x="563" d="M8 866q0 47 13.5 81t45 59.5t68.5 38t80 12.5q39 0 76 -12.5t64.5 -35t42 -58.5t14.5 -74v-277h336v-88h-336v-164v-22l-2 -13l-17 -14l-20 -4q-20 0 -54 25.5t-90 82.5l-77 93q-23 35 -27 55l6 16l16 17l19 10l14 4l123 2v287q0 20 -7 35.5t-20.5 29t-29 19.5t-35.5 6 q-18 0 -41 -8l-35 -19l-22 -32l-9 -44l2 -28l11 -31l4 -14l10 -19l-102 2l-9 15l-2 12l-8 29zM504 973v84h80v-84h-80z" />
<glyph unicode="I" horiz-adv-x="440" d="M0 973v84h453v-84h-189v-340q0 -45 15.5 -80t43 -61.5t58.5 -38.5q20 -6 59 -11q35 0 70 15.5t68 48.5q16 16 28 31.5t22.5 34t13.5 46.5v-157l-44 -41l-51 -29l-29 -10l-24 -6l-29 -6h-27q-55 0 -104 18.5t-90 58.5q-43 37 -63.5 90.5t-20.5 112.5v324h-160z" />
<glyph unicode="J" horiz-adv-x="1179" d="M51 479l162 96q20 6 39 23l45 29l20 14l27 21l-43 24l-27 23q-31 29 -53 69q-16 39 -16 84t14 79t46 59.5t72 39t79 13.5q45 0 79.5 -13.5t66.5 -37t49.5 -60.5t17.5 -80q0 -27 -3 -39t-14.5 -36.5t-44.5 -61.5l-26 -23l-35 -28l84 -49l63 -35l76 -41l66 -27l129 94v357 h-219v84h479v-84h-148v-973h-112v508l-525 -404l-63 89l381 272l-146 76l-43 16l-47 25l-20 10l-29 18l-147 -102l-164 -109zM299 862q0 -31 12.5 -55.5t44.5 -50.5l37 -25l27 -8l29 14q12 6 20 17q27 23 38 46t13 54q0 29 -10 47q-6 20 -25 39l-39 25l-43 8 q-20 0 -37.5 -7.5t-35.5 -21.5l-23 -35z" />
<glyph unicode="K" horiz-adv-x="1204" d="M0 973v84h1208v-84h-147v-973h-109v717h-653q-12 0 -20.5 -7.5t-8.5 -19.5l4 -26l15 -29l20 -35l15 -18l30 -37l27 -25l35 -20l41 -6l41 4l55 18l53 16l45 7q29 0 51.5 -11.5t42.5 -38.5q16 -27 23.5 -49t11.5 -65q0 -57 -22 -101q-18 -43 -64 -81q-31 -25 -50 -38.5 t-54 -33.5q-51 -23 -94 -23l204 -153l-84 -66l-208 201h-68h-25q-12 0 -39.5 5t-55 19.5t-46.5 38.5q-10 20 -14 52l6 28l18 27l27 18l33 6q18 0 45 -14l57 -37l39 -37l14 -20l82 18l58 19q70 31 105.5 75t35.5 97l-6 26q-2 12 -15 21l-20 12l-27 4l-34 -4l-50 -12l-49 -12 l-30 -4q-51 0 -97.5 24.5t-97.5 81.5q-43 49 -72 102q-22 49 -22 93q0 27 7 41t23 28l35 17l43 6l684 2v172h-952z" />
<glyph unicode="L" horiz-adv-x="759" d="M-20 973v84h808v-84h-221v-268v-27v-27v-20q-4 -14 -4 -21l-12 -45q-10 -29 -43 -53q-23 -16 -68 -27q-16 0 -24 -4l-21 -2l-22 2q-12 0 -29 8l127 -192l55 -72l68 -78l31 -34l43 -43l-84 -70q-25 10 -99 104l-188 271l-61 92l-58 94l-37 64l-37 65l89 58l59 -115 q16 -39 48 -55.5t73 -16.5l45 6q18 6 26 21l15 30l4 44l-2 30v23v258h-481zM592 616h360v-84h-288z" />
<glyph unicode="M" horiz-adv-x="1079" d="M0 973v84h1096v-84h-172v-268h-437l-12 -17l-2 -14l2 -23q4 -16 10 -24l17 -33l30 -43l31 -37l31 -25l31 -18l30 -4h13l8 2l100 29l41 12l51 12l35 4q25 0 44.5 -13t37.5 -42l16 -51l7 -58q0 -43 -4.5 -72.5t-18.5 -66.5q-20 -57 -63 -100t-105 -68q-61 -20 -125 -20 q-76 0 -149.5 29.5t-149.5 89.5q-49 39 -112 98q-51 55 -105 123l-63 86l-21 41l80 78q2 -8 3 -13.5t16.5 -32t21.5 -36t35 -45.5q29 -43 47 -67t49 -56l100 -97q68 -55 130.5 -84.5t117.5 -29.5q51 0 87 16.5t65.5 48t44 79.5t14.5 95q0 35 -13 51.5t-40 16.5 q-16 0 -47 -10q-23 -4 -34 -7t-46 -20l-43 -14l-29 -4q-49 0 -99 30.5t-97 94.5q-51 63 -75 114.5t-24 91.5l6 39q6 18 23 27l35 14l45 4l354 2v185h-819z" />
<glyph unicode="N" horiz-adv-x="1204" d="M0 973v84h1208v-84h-260v-176l41 -23l43 -18q37 -29 58.5 -75t21.5 -99q0 -59 -10 -106.5t-37 -100.5q-45 -90 -143 -170q-82 -68 -184.5 -106t-209.5 -38q-74 0 -128 19.5t-99 60.5t-65.5 97.5t-20.5 115.5q0 70 25.5 124t83.5 104l-31 12l-25 12l-22 10l-17 13 q-43 33 -71 76q-23 41 -23 90q0 37 4 55l19 51l26 39q12 18 31 31zM240 803q0 -41 16 -66.5t51 -54.5q16 -10 28.5 -17.5t29 -12.5t30 -8t37.5 -3h23l26 2h13l14 2h12q10 2 12 4l39 -78l-6 -2l-8 2h-12h-10q-45 0 -82 -14t-70 -45t-50.5 -68.5t-17.5 -81.5q0 -47 16.5 -84.5 t49.5 -74.5q35 -31 74 -49q43 -16 86 -17q51 0 101 15.5t101 46.5l39 26l49 37l-51 62l-45 82l-33 90q-10 47 -10 86q0 51 18.5 94t55.5 74l37 20l41 21v182h-496q-12 0 -32.5 -21.5t-43.5 -58.5l-24 -49zM788 573q0 -29 2.5 -45t13.5 -53t42 -84l22 -33l35 -36l12 10l25 30 q14 20 27.5 47t29 70t15.5 103l-6 47q-4 23 -14.5 40t-36 31.5t-56.5 14.5q-29 0 -47 -9.5t-37 -33.5l-20 -45z" />
<glyph unicode="O" horiz-adv-x="468" d="M0 973v84h475v-84h-475zM131 510q0 61 19.5 110.5t60.5 95.5t91 68.5t106 22.5l36 -2l41 -6l35 -8q18 0 29 -5l22 -106l-22 12l-19 8l-55 17l-55 6q-45 0 -76 -14q-29 -10 -50.5 -38t-37.5 -69q-10 -35 -10 -74q0 -41 12 -80.5t38 -71.5t58 -48q43 -14 82 -15h23 q27 6 39 9q37 10 61 28q37 20 61.5 42t38.5 46v-119l-47 -34l-45 -31l-63 -23l-64 -6q-63 0 -115.5 19.5t-97.5 60.5t-73 94q-23 51 -23 111z" />
<glyph unicode="P" horiz-adv-x="663" d="M0 973v84h676v-84h-676zM100 696v84h625v-84h-137l-60 -41l-41 -32q-49 -43 -74.5 -88.5t-25.5 -88.5q0 -39 9.5 -65.5t26.5 -44t44 -27.5l57 -8q61 0 121 36t119 107l72 95q25 37 24 55v-182q-6 -16 -33 -43l-71 -60q-57 -41 -123 -69q-25 -10 -54.5 -16.5t-58.5 -6.5 q-51 0 -93 13.5t-77 45.5q-31 25 -53 70q-16 45 -16 96q0 41 10 72q4 14 13 33.5t22 36.5q29 41 56.5 68.5t53.5 41.5z" />
<glyph unicode="Q" horiz-adv-x="1280" d="M0 973v84h1292v-84h-571v-305l20 18l43 31q33 20 65 32.5t58 12.5q55 0 103.5 -18.5t88.5 -54.5t60.5 -84t20.5 -99q0 -66 -26 -130.5t-75 -133.5l-37 -41l-69 -72l-88 72l53 39l39 36q45 51 69.5 112t24.5 126q0 37 -9 62.5t-28.5 49t-51.5 38t-71 14.5 q-35 0 -68.5 -22.5t-68.5 -69.5q-12 -12 -24 -39l-29 -53v-494h-109v408q-18 -23 -45 -37l-47 -23l-51 -14l-51 -4q-39 0 -55.5 2t-51.5 16t-79 52t-64 89q-8 20 -14.5 50t-6.5 59v375h-147zM252 584q0 -51 8 -74t16.5 -37t22.5 -28.5t43 -26.5l66 -8q41 0 77.5 13t67.5 44 q23 23 38 47.5t21 54.5v404h-360v-389z" />
<glyph unicode="R" horiz-adv-x="563" d="M0 973v84h567v-84h-567zM117 530q0 47 12 83t32.5 65t53.5 44t74 15l463 2v-80h-408q-37 0 -59 -10q-25 -6 -38.5 -19.5t-20.5 -34t-7 -48.5q0 -76 36 -157t105 -169l97 -108q35 -31 51 -35l-72 -66l-94 84l-66 72q-37 45 -67.5 92t-52.5 94q-39 94 -39 176z" />
<glyph unicode="S" horiz-adv-x="12" d="M-774 1327l76 84l379 -354h-52zM-547 1520l96 53l328 -516h-72z" />
<glyph unicode="T" horiz-adv-x="835" d="M0 973v84h836v-84h-836zM121 723l88 70q-4 -4 -4 -14q0 -20 16 -66l82 -181q63 -125 135 -194q74 -63 150 -64q27 0 48 11.5t40.5 36t28 51t12.5 69.5q0 39 -19.5 85t-58.5 104q-10 14 -21 28q-18 25 -32 39q-18 25 -31 31l465 2v-80h-293l27 -33l37 -67l20 -57l8 -43 q0 -55 -13 -96.5t-43 -78t-78 -59t-105 -22.5q-68 0 -133.5 33.5t-122.5 101.5q-41 47 -82 112q-10 16 -33 61.5t-39 80.5l-41 100q-4 10 -5 21.5t-3 17.5z" />
<glyph unicode="U" horiz-adv-x="540" d="M0 973v84h549v-84h-549zM121 631q0 23 6 35t27 24l18 6l25 2l534 2v-84h-354v-163v-9v-8l-2 -10v-10q0 -12 -13 -19l-30 -4q-10 0 -45 25l-76 76q-33 37 -39 45q-16 20 -29 39q-18 31 -22 53z" />
<glyph unicode="V" horiz-adv-x="1007" d="M12 973v84h1008v-84h-211v-318h-365q-27 0 -39 -3t-37.5 -14t-51 -37t-44.5 -62q-12 -31 -12 -70q0 -61 25 -123q25 -53 75 -105.5t109 -78t127 -25.5q47 0 86 10.5t70.5 29t64.5 50.5l55 70l89 -49q-33 -53 -72 -86q-18 -18 -32.5 -28.5t-52.5 -33t-87 -35t-105 -12.5 q-86 0 -168 31t-152.5 96.5t-105 140t-34.5 156.5q0 55 20 103q18 51 57 86.5t89.5 57t101.5 21.5l285 3v225h-693z" />
<glyph unicode="W" horiz-adv-x="24" d="M-690 1470l106 3q0 -51 16.5 -88t51.5 -70q27 -23 72 -41q18 -6 38.5 -10t45.5 -4q41 0 80.5 12t69.5 37.5t52 68.5q16 43 17 92l104 3q0 -62 -29 -119q-25 -49 -65.5 -89t-97.5 -63q-66 -20 -133 -20q-68 0 -124.5 18.5t-98.5 58t-67.5 89t-37.5 122.5z" />
<glyph unicode="X" horiz-adv-x="587" d="M0 973v84h588v-84h-152v-502v-27v-16q-4 -20 -13 -29.5t-32 -13.5q-27 0 -63 23l-82 69q-47 49 -66.5 83t-23.5 67q2 14 4 18l14 12l8 2q10 2 13 5h8l10 2l119 2v305h-332z" />
<glyph unicode="Y" horiz-adv-x="788" d="M0 973v84h793v-84h-793zM152 446q0 59 19 109.5t62 91.5t100.5 61.5t119.5 20.5q55 0 102 -16q49 -12 94 -45l56 -43q18 -14 20 -27l18 14l17 13l39 26l28 19l47 20l52 17l20 4l27 4v-94l-31 -9l-22 -6l-64 -31q-20 -14 -27.5 -19t-27.5 -26l-35 -41l-31 -49l-30 -59 l-17 -47l-88 51l4 25l17 30l34 60l13 30q-4 12 -30 34t-60 38l-70 29q-20 6 -64 10q-29 0 -40 -2t-38.5 -14.5t-58.5 -42.5q-14 -18 -25.5 -39t-16.5 -34t-9 -30.5t-4 -40.5q0 -68 43 -139q43 -63 133 -127l72 -45l104 -49l-51 -86q-47 0 -116.5 42t-160.5 136 q-61 63 -92.5 132t-31.5 144z" />
<glyph unicode="Z" horiz-adv-x="10" d="M-383 1374q0 45 15.5 77t50 57.5t72.5 38t85 12.5l60 -7l55 -18l-2 -82l-14 4l-15 6l-39 8l-43 5q-31 0 -54.5 -10.5t-39.5 -28t-27.5 -45t-11.5 -62.5q0 -31 2 -45t15.5 -52t48.5 -91l28 -39l39 -47l-78 2q-6 4 -11 8t-17 20l-47 74q-8 14 -26.5 54t-27.5 59 q-18 55 -18 102z" />
<glyph unicode="[" horiz-adv-x="960" d="M0 973v84h977v-84h-453v-293q0 -49 -20.5 -81t-63.5 -54l-73 -21l-95 -6l50 -108l49 -76q68 -88 159 -139q43 -20 92.5 -32.5t102.5 -12.5q49 0 105.5 12t107.5 34.5t69.5 31t51.5 30.5q49 31 82 64v-107l-92 -59l-109 -47l-115 -33q-53 -8 -74.5 -9t-33.5 -1 q-61 0 -85 3t-63 13q-66 18 -125 55q-68 43 -133 121q-59 78 -118 193l-35 81l-39 111l-8 23l-11 32l93 50l34 -115l13 -12l12 -9l33 -14l39 -4l41 6q18 6 31.5 19.5t17.5 27.5l6 39v287h-420zM696 594q0 45 18.5 86t54.5 73.5t81 51.5q23 8 43 12t47 4l45 -6l47 -16l25 -74 l-47 12l-52 6q-35 0 -61 -10q-27 -6 -48.5 -22.5t-37.5 -46.5q-10 -27 -10 -66q0 -33 9 -58.5t27.5 -43t45.5 -27.5l53 -8q33 0 59 8q33 6 60.5 22.5t49 38t36.5 48.5v-121l-33 -27l-27 -16l-77 -33q-29 -6 -38.5 -8t-33.5 -2q-49 0 -91 15t-74 45t-54 71q-16 43 -17 92z " />
<glyph unicode="\" horiz-adv-x="835" d="M51 1251l60 37l49 29q63 33 127.5 51t124.5 18q68 0 132 -23.5t117.5 -69.5t80 -105.5t26.5 -124.5q0 -74 -29 -137q-27 -59 -86 -119q-72 -72 -137 -111t-121 -39v-297h-106v345q23 0 71 18q45 20 119 68q90 57 137.5 122.5t47.5 137.5q0 49 -18.5 92t-55.5 80t-81 56 t-89 19q-53 0 -99.5 -15t-103.5 -50q-41 -23 -65 -45q-16 -12 -23 -27zM285 0v113h118v-113h-118z" />
<glyph unicode="]" horiz-adv-x="368" d="M76 -172l84 289h125l-121 -289h-88z" />
<glyph unicode="^" horiz-adv-x="391" d="M139 944l121 293h88l-84 -293h-125z" />
<glyph unicode="_" horiz-adv-x="1671" d="M0 973v84h1692v-84h-811v-428l247 114l-12 21l-2 29q0 27 8 45q6 23 23.5 42t35 28.5t48.5 13.5q53 0 79.5 -33t26.5 -94q0 -18 -10 -36t-35 -36l-20 -12l-27 -17l158 -198l-66 -19q-16 -4 -24 -7t-19 -9q-53 -25 -80.5 -61.5t-27.5 -77.5q0 -37 12 -68q12 -23 37 -45 l47 -23l59 -8q31 0 44.5 3t35.5 14q41 16 80 49l27 26l35 39l75 -86l-45 -39l-37 -24l-53 -27l-49 -18l-53 -13l-51 -4q-63 0 -113.5 15.5t-87.5 46t-56.5 72.5t-19.5 94q0 41 13.5 78.5t44 66.5t68.5 46.5t79 17.5l-113 137l-282 -135v-453h-109v408l-440 -328l-68 92 l461 299l-61 66l-46 49q-57 59 -93 85.5t-60 30.5q-25 0 -73 -17t-122 -52l-59 -31l-80 -41l-63 82l47 25l127 57l147 57q27 8 48.5 13.5t37.5 7.5q27 0 71 -32t109 -97l88 -99q25 -31 29 -45v443h-772z" />
<glyph unicode="`" horiz-adv-x="10" d="M-526 -244q0 51 16 90q12 39 42 69t71 50q18 6 38.5 10.5t45.5 4.5h170v-84h-146q-25 0 -47 -9.5t-40.5 -28t-28 -39t-13.5 -55.5q0 -35 13.5 -64.5t42.5 -47.5q25 -20 57.5 -32.5t71.5 -12.5q33 0 52 4t42 14l47 25l22 22l54 -80l-33 -20l-31 -14q-43 -16 -87 -25.5 t-83 -9.5q-16 0 -37.5 1t-58.5 15q-45 12 -90 43t-67.5 77t-22.5 97z" />
<glyph unicode="a" horiz-adv-x="4" d="M-195 1286v133h142v-133h-142z" />
<glyph unicode="b" horiz-adv-x="911" d="M0 973v84h924v-84h-232v-268h-428l-6 -9l-6 -10l2 -29l8 -22l19 -31l30 -39l37 -41l23 -24l32 -27l29 -6q27 0 54.5 6t45 11t54.5 20l49 14l41 4q23 0 45 -13t35.5 -31.5t23.5 -51.5l8 -55q0 -72 -22 -129q-16 -51 -61 -103q-20 -20 -47 -40.5t-52 -37.5q-51 -26 -95 -26 h-3l22 -25l21 -14l45 -39l37 -33l82 -53l57 -35l-55 -88l-31 21l-22 14q-14 8 -30 19.5t-32 27.5l-61 53l-43 37l-52 51l-38 35l-17 21h-39h-33q-20 4 -38.5 6t-29.5 4t-30 10q-49 16 -74 49q-10 14 -16 35t-6 47l6 35q6 18 21 33l28 20l39 8q33 0 71 -19t79 -60l26 -35 l37 -45q35 0 72 10q35 6 51 16q63 29 94 80t31 117l-2 39q0 23 -4 31q0 12 -10 18l-21 8l-33 -8l-67 -25l-78 -22l-57 -8q-37 0 -84.5 32.5t-94.5 97t-72.5 114t-25.5 83.5l6 31l23 29l33 20l34 8l357 2v185h-584z" />
<glyph unicode="c" horiz-adv-x="911" d="M0 973v84h907l4 -84h-147v-973h-109v311q-18 -25 -47 -45l-53 -26q-25 -12 -57 -19l-60 -4q-59 0 -113.5 18.5t-97.5 59.5q-49 41 -73 94q-23 57 -23 121q0 59 21.5 109.5t64.5 93.5t94 64.5t109 21.5l47 -4q27 0 51 -9l10 -4l17 -4l14 -90q-10 12 -39 21l-53 8 q-31 0 -47 -4l-45 -13q-20 -6 -41 -20q-20 -10 -31 -23l340 -233l12 45v504h-655zM236 510q0 -45 13 -83t46 -67q29 -33 65 -49q43 -14 80 -14h33q16 6 23 8q25 8 30.5 11t24.5 18l20 14l25 23l-336 237l-8 -20l-4 -15l-10 -36z" />
<glyph unicode="d" horiz-adv-x="1304" d="M0 973v84h1321v-84h-590v-309l37 34l25 21q35 25 73.5 38t69.5 13q63 0 110.5 -19.5t90.5 -58.5q37 -33 58.5 -83t21.5 -103q0 -55 -25 -114.5t-82 -135.5l-45 -55l-61 -68l-89 68q6 2 13.5 6t19.5 16q27 27 64 78q45 57 68.5 113.5t23.5 99.5q0 41 -8.5 65.5t-13.5 35 t-18 26.5t-45 30.5t-71 14.5q-45 0 -82 -21.5t-73 -68.5q-27 -33 -48 -80q-6 -18 -10 -36.5t-4 -41.5v-438h-106v303q-35 -35 -85.5 -55.5t-105.5 -20.5q-57 0 -108.5 19.5t-97.5 60.5t-68 90q-20 55 -21 113q0 59 19.5 108.5t63.5 89.5t93 60q23 8 50.5 14t56.5 6l55 -6 q37 -8 55 -16v-86l-20 8l-10 6l-31 8l-31 5q-45 0 -76.5 -14.5t-57 -46.5t-38 -68.5t-12.5 -77.5q0 -43 12.5 -77t34 -60.5t53.5 -43.5q37 -14 76 -14q37 0 64.5 11.5t56.5 35.5l27.5 27.5t25.5 30.5q18 29 19 53v510h-625z" />
<glyph unicode="e" horiz-adv-x="966" d="M0 973v84h999v-84h-153v-973h-107v516h-374v-143l2 -23q-2 -10 -5 -12l-16 -12l-27 -4q-20 0 -51 22q-14 12 -31.5 30.5t-39.5 43.5q-39 43 -64 80q-18 33 -20 53l6 27q8 10 22 18l11 4l20 6l88 2v365h-260zM365 608h374v365h-374v-365z" />
<glyph unicode="f" horiz-adv-x="442" d="M0 973v84h186l-8 18l-12 51l-12 56l-2 32q0 66 20.5 117t64.5 95t105 68t129 24q74 0 163 -30t187 -89q72 -43 144 -101l147 -122l59 -62l62 -59l-137 2l-52 45l-49 49q-61 55 -71 63q-35 25 -50 35l-122 82q-82 49 -155 74t-132 25q-47 0 -82 -17q-39 -12 -68.5 -44 t-48.5 -75q-6 -20 -10 -44.5t-4 -51.5l2 -41l10 -47l12 -39l9 -16l178 2v-84h-174v-973h-109v973h-180z" />
<glyph unicode="g" horiz-adv-x="931" d="M0 973v84h973v-84h-205v-264h-487q-18 0 -27 -11l-8 -18l8 -35q6 -20 27 -43l8 -16l12 -15l12 -16l13 -16l20 -25l14 -8l31 6l33 6l61 8l47 4q72 0 126.5 -13t95.5 -37.5t61.5 -65.5t20.5 -92q1 -9 1 -18q0 -25 -9 -49q-11 -32 -35 -54l-43 -33l-15 -10l-80 61l11 4l10 6 l8 4l6 7q16 14 24.5 32.5t12.5 49.5q0 37 -13.5 62.5t-40 38.5t-65.5 19l-84 9q-63 0 -113.5 -13.5t-80.5 -42.5q-31 -25 -48.5 -63.5t-17.5 -81.5q0 -61 55 -115q53 -47 170 -84l175 -43q20 -2 47 -2q18 0 20 4l-39 -78q-10 -8 -37 -8q-20 0 -56 6.5t-78 18.5t-103 35 q-131 43 -198.5 113.5t-67.5 164.5q0 27 7 50.5t24.5 51t39.5 50.5l49 49l-43 45l-26 35q-37 47 -56 88q-4 12 -9 36.5t-7 39.5l6 36q6 14 23 29l30 16l37 7l432 2v176h-659z" />
<glyph unicode="h" horiz-adv-x="440" d="M-428 1223q0 51 18 100q14 47 49 89t81.5 63.5t97.5 21.5q74 0 152.5 -55.5t160.5 -165.5l59 -92l74 -129l195 2v-84h-172v-973h-107v973h-180v84h156q3 3 3 8q0 17 -30 65q-39 62 -135 173q-49 55 -93 84.5t-79 29.5q-33 0 -59.5 -13t-43 -38t-23.5 -48.5t-10 -37.5 t-3 -39q0 -27 8 -53q2 -8 8 -26.5t14 -35.5l27 -51l14 -20l-119 2l-24 33l-21 40l-14 46z" />
<glyph unicode="i" horiz-adv-x="911" d="M0 973v84h940v-84h-168v-973h-108v408l-37 -31l-27 -19q-37 -25 -77 -37t-79 -12q-63 0 -112 19.5t-92 62.5q-16 18 -30.5 41t-29.5 51q-20 55 -20 111v379h-160zM264 580q0 -47 15.5 -84t46.5 -62q23 -18 53 -35q18 -6 61 -10q45 0 77 14.5t48.5 24.5t38.5 31l27 28 l33 43v443h-400v-393z" />
<glyph unicode="j" horiz-adv-x="761" d="M-41 973v84h838v-84h-164v-268q0 -49 -15.5 -83t-52.5 -65q-27 -23 -71 -41q-43 -14 -82 -14l-39 2q-25 4 -37 10l147 -211l58 -72l73 -79l33 -37l45 -45l-76 -70q-33 14 -114 111q-70 84 -199 264l-63 94l-60 98l-43 74l-41 74l84 61l84 -143q12 -25 42 -38t75 -13 q37 0 61.5 7t43 25.5t26.5 40t12 60.5v258h-565z" />
<glyph unicode="k" horiz-adv-x="440" d="M-20 973v84h507v-84h-198v-973h-109v973h-200z" />
<glyph unicode="l" horiz-adv-x="1204" d="M-20 973v84h1249v-84h-168v-973h-109v532h-288l-72 84h360v357h-385v-268v-27v-27v-20q-4 -14 -4 -21l-12 -45q-10 -29 -43 -53q-23 -16 -68 -27q-16 0 -24 -4l-21 -2l-22 2q-12 0 -29 8l127 -192l55 -72l68 -78l31 -34l43 -43l-84 -70q-25 10 -99 104l-188 271l-61 92 l-58 94l-37 64l-37 65l89 58l59 -115q16 -39 48 -55.5t73 -16.5l45 6q18 6 26 21l15 30l4 44l-2 30v23v258h-481z" />
<glyph unicode="m" horiz-adv-x="1107" d="M-20 973v84h1148v-84h-288l24 -35l17 -25q20 -35 32 -71q2 -10 5.5 -28.5t5.5 -39.5q0 -61 -29 -106q-25 -45 -80 -82q35 -16 41 -19.5t34 -26t50.5 -59.5t34.5 -81t12 -91q0 -61 -22 -108q-18 -47 -62 -88q-41 -35 -96 -60q-53 -18 -119 -18q-82 0 -155.5 41t-151.5 129 q-51 57 -107 141q-49 80 -94 176l-55 123q-14 43 -12 53l92 58l31 -84l32 -82q33 -78 49 -111q2 -4 33 -61q41 -70 88 -133q61 -80 125 -125q31 -20 60.5 -30.5t64.5 -10.5t50.5 2t39.5 14q37 18 64 51q16 25 24 57.5t9.5 50t1.5 28.5q0 49 -11.5 80.5t-17.5 44t-28.5 41 t-59.5 47t-80 18.5l-188 2l-39 88h223l59 6q27 6 39 17q27 18 38 47.5t11 68.5q0 29 -13 60.5t-40 68.5l-22 25l-31 35z" />
<glyph unicode="n" horiz-adv-x="1007" d="M0 973v84h1028v-84h-223v-277h-377q-33 0 -56.5 -13t-45.5 -36l-33 -51q-6 -16 -10 -55q0 -94 44 -158t134 -96l74 -17l106 -8q-2 10 -4 12v11q0 20 -4 30l-2 23q0 31 4 45l18 41q10 16 34 27.5t52 11.5q20 0 37 -10q16 -6 30.5 -21.5t24.5 -40.5l9 -41 q0 -35 -10.5 -59.5t-28.5 -42.5l-17 -15l-24 -16l51 -113l35 -59l35 -47l14 -16l16 -23h-135l-55 109l-57 120l-17 -4h-14q-80 0 -146.5 12.5t-119.5 39.5q-92 43 -142 118q-45 80 -45 185q0 47 13.5 88t46.5 80q29 39 67.5 57t77.5 18l303 2v189h-688z" />
<glyph unicode="o" horiz-adv-x="911" d="M-20 973v84h976v-84h-188v-973h-109v319l-47 -34l-45 -31l-63 -23l-64 -6q-63 0 -115.5 19.5t-97.5 60.5t-73 94q-23 51 -23 111q0 61 19.5 110.5t60.5 95.5t91 68.5t106 22.5l36 -2l41 -6l35 -8q18 0 29 -5l22 -106l-22 12l-19 8l-55 17l-55 6q-45 0 -76 -14 q-29 -10 -50.5 -38t-37.5 -69q-10 -35 -10 -74q0 -41 12 -80.5t38 -71.5t58 -48q43 -14 82 -15h23q27 6 39 9q37 10 61 28q37 20 61.5 42t38.5 46v535h-679z" />
<glyph unicode="p" horiz-adv-x="1107" d="M0 973v84h1116v-84h-143v-973h-109v408q-6 -14 -33 -41l-73 -60q-61 -43 -123 -66.5t-115 -23.5q-51 0 -93 13.5t-77 45.5q-31 25 -53 70q-16 45 -16 96q0 41 10 72q4 14 13 33.5t22 36.5q29 41 56.5 68.5t53.5 41.5l-336 2v84h625v-84h-137l-60 -41l-41 -32 q-49 -43 -74.5 -88.5t-25.5 -88.5q0 -39 9.5 -65.5t26.5 -44t44 -27.5l57 -8q63 0 120.5 27.5t121.5 87.5q37 35 43 41q16 18 31 37q25 31 24 49v430h-864z" />
<glyph unicode="q" horiz-adv-x="10" d="M-778 -285l69 88l76 -55l58 -39q72 -45 141 -69.5t125 -24.5q41 0 81 11.5t75.5 35t56.5 55.5q14 25 14 68q-4 27 -14 51l-31 41q-16 18 -37 31l-47 8q-29 0 -51.5 -8t-54.5 -31l-33 -33l-12 -12l-82 72l24 22l53 31q18 10 39 18.5t48.5 15.5t40 9t40.5 2q47 0 86 -13.5 t70 -44t49 -71.5q14 -47 14 -96q0 -60 -26 -109q-25 -47 -84 -84q-47 -29 -104.5 -44t-118.5 -15q-51 0 -107.5 13t-125 43t-81.5 36q-31 14 -65 37q-59 31 -86 61z" />
<glyph unicode="r" horiz-adv-x="1007" d="M-20 973v84h1064v-84h-188v-973h-108v680h-383q-35 0 -64 -12q-27 -6 -43 -24.5t-27 -45.5l-8 -51q0 -76 21 -144q10 -33 26.5 -66.5t38.5 -68.5q61 -98 111 -147q25 -23 45 -35t39 -12l-72 -74q-2 0 -7 2t-19 14l-58 56l-84 94q-18 25 -35 49q-4 8 -30 51 q-39 72 -62 142q-20 78 -20 139q0 49 10 82t37 71q25 31 57 50q25 10 40 13t38 3l449 2v205h-768z" />
<glyph unicode="s" horiz-adv-x="6" d="M-668 1495l72 78l420 -516h-68z" />
<glyph unicode="t" horiz-adv-x="1304" d="M0 973v84h1321v-84h-168v-973h-109v633h-317q10 -6 27 -41l37 -90l20 -72l8 -55q0 -18 -1 -39t-15 -57q-12 -41 -43 -74t-78 -55q-45 -16 -102 -17q-74 0 -137.5 35t-125.5 111q-45 51 -78.5 115.5t-70.5 156.5l-39 106l-8 45l88 66v-17.5t4 -25.5l37 -115 q25 -74 56.5 -136t70.5 -118q49 -70 102 -108q53 -35 109 -35q31 0 54.5 11.5t39.5 33t25.5 51t9.5 62.5q0 51 -19.5 106t-58.5 121l-53 78q-16 25 -31 35l489 2v260h-1044z" />
<glyph unicode="u" horiz-adv-x="1007" d="M0 973v84h1036v-84h-168v-973h-108v608h-383v-176l-2 -29q-2 -12 -4 -14l-17 -14l-22 -4q-12 0 -45 26l-76 80q-47 57 -66.5 90t-23.5 56q0 23 6 35t27 24l18 6l25 2l563 2v281h-760z" />
<glyph unicode="v" horiz-adv-x="1179" d="M8 489l84 56l64 -113l51 -76q68 -92 135 -141q68 -45 127 -45q31 0 57.5 12.5t55.5 44.5q18 25 32.5 57.5t14.5 69.5q0 49 -17 84q-10 35 -43 66q-29 23 -67 39q-43 14 -82 14h-35q-20 0 -43 -8l-10 -4l-13 -2l-34 78q49 0 88 8q43 12 82 37.5t62.5 64.5t23.5 82 q0 37 -9 61q-6 29 -22 48.5t-48 34t-71 14.5q-35 0 -76 -19q-23 -10 -40 -21t-42 -32l-32 -31l-41 -43l-80 64q2 6 5 10t17 19l68 55q57 41 113 61q66 20 116 21q53 0 94.5 -18.5t79.5 -57.5q29 -31 46.5 -76t17.5 -90q0 -33 -7 -59.5t-20.5 -51t-36 -46t-53.5 -38.5l10 -2 l19 -4q18 -6 24 -10l35 -16l19 -11l20 -8l23 -12l22 -8l47 -17l54 -4l41 2l49 13l22 6l27 10v416h-197v84h449v-84h-148v-973h-104v465l-31 -8l-31 -6l-26 -5h-17l-36 3l-43 12l-21 6l-22 10l6 -20l6 -15l10 -47l4 -45q0 -68 -20 -117q-16 -47 -62 -83q-33 -29 -82 -46 q-23 -6 -46 -10t-56 -4q-43 0 -80 10.5t-82 36.5q-78 45 -162 142q-63 76 -102 133q-31 53 -31 77z" />
<glyph unicode="w" horiz-adv-x="4" d="M-463 -227q0 47 17.5 85t56.5 76q37 31 81 48.5t91 17.5q68 0 132.5 -25.5t125.5 -80.5q43 -37 86 -86.5t82 -114.5l29 -53l30 -56l-92 -49q0 25 -26 72q-8 14 -41 63q-25 37 -37 54q-66 90 -138 139q-74 45 -147 45q-35 0 -56.5 -9.5t-39 -32t-24.5 -44t-11 -55.5 q0 -27 7 -49.5t22.5 -41t42.5 -30.5q16 -6 51 -11l33 5l34 14l15 8l16 10l55 -84l-26 -12q-33 -12 -66 -18l-65 -7q-51 0 -92 16.5t-75 47.5t-52.5 70t-18.5 88z" />
<glyph unicode="x" horiz-adv-x="1071" d="M0 973v84h1098v-84h-230v-973h-108v973h-324v-537v-26v-21q-4 -20 -16 -31l-29 -8q-23 0 -63 25q-31 23 -82 74q-45 51 -67.5 90t-22.5 67q0 14 4 21l12 10l18 2l23 2l119 2v330h-332z" />
<glyph unicode="y" horiz-adv-x="1232" d="M0 973v84h1249v-84h-170v-973h-106v621l-31 -9l-22 -6l-64 -31q-20 -14 -27.5 -19t-27.5 -26l-35 -41l-31 -49l-30 -59l-17 -47l-88 51l4 25l17 30l34 60l13 30q-4 12 -30 34t-60 38l-70 29q-20 6 -64 10q-29 0 -40 -2t-38.5 -14.5t-58.5 -42.5q-14 -18 -25.5 -39 t-16.5 -34t-9 -30.5t-4 -40.5q0 -68 43 -139q43 -63 133 -127l72 -45l104 -49l-51 -86q-47 0 -116.5 42t-160.5 136q-61 63 -92.5 132t-31.5 144q0 59 19 109.5t62 91.5t100.5 61.5t119.5 20.5q55 0 102 -16q49 -12 94 -45l56 -43q18 -14 20 -27l18 14l17 13l39 26l28 19 l47 16l52 14l20 2l27 5v266h-973z" />
<glyph unicode="z" horiz-adv-x="10" d="M-801 80l570 356v-84l-500 -352z" />
<glyph unicode="{" horiz-adv-x="641" d="M20 406q0 27 4.5 44t18.5 44q25 43 70 88l39 30l53 37q-16 8 -41 33l-41 63q-16 27 -27 62l-8 61q0 45 14.5 77t46 57.5t68.5 38t84 12.5q49 0 86 -15q41 -12 75 -36.5t52 -61.5t18 -84q0 -37 -18 -74q-10 -20 -21.5 -34.5t-31.5 -34.5l-31 -27l-43 -29l19 -8l18 -2 l63 -10l72 -2l82 2q33 0 64 10l59 21q33 12 38 15t29 19v-94l-71 -33l-58 -16l-63 -10l-80 -2l-78 6l-98 20l-43 11l-55 18q-12 0 -33 -14l-47 -37q-35 -33 -55.5 -72t-20.5 -82q0 -33 2 -47t17.5 -42.5t50.5 -49.5l55 -22l72 -7h16h14h11l10 4l-4 9v12v10v10l6 50l18 32 q14 14 29 19l39 8q27 0 43 -8q16 -4 35 -25l20 -35l8 -41l-6 -34l-14 -27q-6 -10 -25 -20l-34 -11l22 -39l31 -32l28 -27l43 -31l-88 -61l-18 14l-12 12l-29 29l-16 25l-13 18l-10 19l-10 20l-8 25l-21 -9l-14 -2l-37 -8l-29 -2q-63 0 -115.5 18.5t-95.5 55.5q-33 33 -59 86 q-20 55 -21 113zM193 864q0 -35 10 -62.5t37 -60.5l18 -20l31 -23q25 8 39 17l28 16q33 25 50.5 57.5t17.5 75.5q0 23 -10 41q-6 16 -25 33l-39 20l-43 9q-27 0 -45 -9l-37 -18q-16 -12 -24 -33zM600 973v84h51v-84h-51z" />
<glyph unicode="|" horiz-adv-x="1204" d="M0 973v84h1217v-84h-150v-973h-106v297q-12 -29 -61.5 -61.5t-145.5 -77.5q-68 -31 -136 -49q-31 -6 -61.5 -10.5t-60.5 -4.5q-66 0 -121.5 18.5t-93.5 59.5q-27 27 -48 68q-6 18 -10 36.5t-4 40.5q0 37 8 64q6 35 23 55l12 15l19 18q-25 0 -50.5 18.5t-52 46t-36 55 t-11.5 38t-2 35.5q0 53 21.5 85.5t68.5 55.5l37 8l55 6l264 2v154h-575zM231 653q0 -25 7.5 -42t25.5 -40l43 -41q18 -12 37 -12l14 4l11 4l55 19l37 6h43h33l28 -2l31 -2l37 -82l-12 -2h-11h-12h-12h-13h-10h-12l-12 2q-68 0 -107 -10q-43 -8 -64.5 -28.5t-32.5 -46.5 t-11 -58q0 -31 13 -57.5t42 -47.5q16 -10 28.5 -17t30.5 -14l70 -8q68 0 142.5 25.5t160.5 83.5q72 43 106.5 71.5t43.5 42.5v572h-285v-242h-332q-33 0 -47 -4q-20 0 -32.5 -5t-24.5 -24z" />
<glyph unicode="}" horiz-adv-x="1007" d="M0 973v84h1004v-84h-220v-281h-399q-33 0 -59 -10q-25 -6 -43 -25q-18 -14 -27 -45l-8 -65q0 -57 21.5 -101.5t62.5 -77t96 -55.5q27 -8 51.5 -12t61.5 -4l20 2l31 4l24 4l13 2l-2 19q0 16 10 37q14 53 43 82.5t68 29.5q23 0 38 -7t28 -20.5t20 -31.5l6 -37 q0 -27 -7.5 -49.5t-22.5 -46t-38 -37.5q-14 -6 -45 -10l8 -37l6 -25l15 -59l16 -51l6 -19l8 -20l7 -21l6 -18l10 -43l4 -35q0 -18 -4 -29l-10 -22l-19 -17l-28 -10l-60 176l-30 -26q-2 -2 -28 -19.5t-38 -23.5q-49 -27 -115 -48q-31 -8 -54.5 -12t-53.5 -4q-47 0 -92 17.5 t-88 50t-68 77.5q-20 45 -21 91q0 31 12.5 63.5t37.5 56.5q33 33 61.5 47.5t60.5 18.5l-40 35l-27 33q-31 39 -53 88q-8 25 -12.5 45t-4.5 49q0 55 15 96q12 45 41 70q29 29 65 43q18 6 38.5 10t45.5 4l332 2v201h-676zM213 102q0 -35 11.5 -56t35.5 -44q18 -16 51 -29 q18 -6 62 -10q33 0 49 2t49 15q51 14 109 45l65 41q27 20 31 28l-33 133l-25 -6l-24 -2l-27 -2h-22l-35 2l-55 6l-58 6l-41 5l-59 -7q-20 -6 -39.5 -19t-34.5 -44q-6 -16 -8 -26.5t-2 -37.5z" />
<glyph unicode="~" horiz-adv-x="10" d="M-315 -121l92 45l223 -297l-43 -47z" />
<glyph horiz-adv-x="2048" />
<glyph horiz-adv-x="2048" />
<glyph horiz-adv-x="2048" />
<glyph horiz-adv-x="2048" />
<glyph horiz-adv-x="2048" />
<glyph horiz-adv-x="2048" />
<glyph horiz-adv-x="2048" />
<glyph horiz-adv-x="2048" />
<glyph unicode="&#xa1;" horiz-adv-x="24" d="M-690 1470l106 3q0 -51 16.5 -88t51.5 -70q27 -23 72 -41q18 -6 38.5 -10t45.5 -4q41 0 80.5 12t69.5 37.5t52 68.5q16 43 17 92l104 3q0 -62 -29 -119q-25 -49 -65.5 -89t-97.5 -63q-66 -20 -133 -20q-68 0 -124.5 18.5t-98.5 58t-67.5 89t-37.5 122.5zM-424 1432v112 h121v-112h-121z" />
<glyph unicode="&#xa2;" horiz-adv-x="6" d="M-1077 1495l71 78l420 -516h-67z" />
<glyph unicode="&#xa3;" horiz-adv-x="1294" d="M0 973v84h1368v-84h-199v-973h-108v973h-537v-293q0 -49 -20.5 -81t-63.5 -54l-73 -21l-95 -6l50 -108l49 -76q68 -88 159 -139q43 -20 92.5 -32.5t102.5 -12.5q66 0 126 19t114 60l63 66l27 27v-107q-25 -31 -60 -59q-6 -4 -35.5 -21.5t-44.5 -25.5l-96 -33 q-33 -6 -49 -8t-53 -2q-61 0 -85 3t-63 13q-66 18 -125 55q-68 43 -133 121q-59 78 -118 193l-35 81l-39 111l-8 23l-11 32l93 50l34 -115l13 -12l12 -9l33 -14l39 -4l41 6q18 6 31.5 19.5t17.5 27.5l6 39v287h-420zM696 594q0 45 18.5 86t54.5 73.5t81 51.5q23 8 43 12 t47 4l45 -6l47 -16l25 -74l-47 12l-52 6q-35 0 -61 -10q-27 -6 -48.5 -22.5t-37.5 -46.5q-10 -27 -10 -66l6 -61q6 -25 18.5 -41.5t30.5 -26.5l39 -8q25 0 46.5 8t39.5 23l41 36l33 50v-121l-6 -27l-9 -16q-14 -18 -45 -33q-16 -6 -26.5 -8t-36.5 -2q-49 0 -91 15t-74 45 t-54 71q-16 43 -17 92zM715 233l241 162l17 -78l-174 -143z" />
<glyph unicode="&#xa4;" horiz-adv-x="450" d="M33 35v53h270v-53h-197v-144l29 -32l27 6l16 2l19 2h28l45 -64l-67 -6l-60 -18q-31 -14 -42 -28.5t-15 -37.5v-8q2 -10 4 -12l4 -8l8 -11q16 -16 35 -24l45 -8q29 0 58.5 7t65.5 24.5t51.5 28.5t17.5 17v-88l-21 -12l-37 -18l-47 -17l-39 -10q-37 0 -71.5 14.5t-62 40 t-40 54t-16.5 65.5l2 29l12 26q6 14 21 25l30 18l-73 60v127z" />
<glyph unicode="&#xa5;" horiz-adv-x="1179" d="M0 973v84h1192v-84h-148v-973h-108v449l-41 -13l-41 -2l-35 2l-33 6q-25 4 -36 11l-33 16q-8 -33 -15.5 -59.5t-19.5 -53.5l-16 -49q-41 -70 -111 -114q-68 -39 -156 -39q-53 0 -111.5 18t-119.5 49q-25 12 -47.5 24.5t-38.5 22.5q-25 18 -27 27l70 78q4 -12 27 -31 l63 -43q23 -14 50.5 -28.5t45.5 -20.5q49 -16 88 -17q47 0 85 18.5t68 57.5t44 84q6 25 10 48.5t4 50.5q0 47 -12 89t-37.5 77.5t-66.5 55t-86 19.5q-18 0 -41 -8l-45 -18l-21 -13l-25 -16l-71 82l39 14l28 14l72 25l55 8q82 0 143.5 -33.5t108.5 -103.5q16 -23 31 -57 l31 -80l18 -8l19 -7l32 -12l29 -2q41 0 68.5 7t56.5 26v422h-936z" />
<glyph unicode="&#xa6;" />
<glyph unicode="&#xa7;" horiz-adv-x="450" d="M33 35v53h270v-53h-197v-144l29 -32l27 6l16 2l19 2h28l45 -64l-67 -6l-60 -18q-31 -14 -42 -28.5t-15 -37.5v-8q2 -10 4 -12l4 -8l8 -11q16 -16 35 -24l45 -8q29 0 58.5 7t65.5 24.5t51.5 28.5t17.5 17v-88l-21 -12l-37 -18l-47 -17l-39 -10q-37 0 -71.5 14.5t-62 40 t-40 54t-16.5 65.5l2 29l12 26q6 14 21 25l30 18l-73 60v127z" />
<glyph unicode="&#xa8;" horiz-adv-x="440" d="M-260 1495l76 78l415 -516h205v-84h-147v-973h-109v973h-180v84h135z" />
<glyph unicode="&#xa9;" horiz-adv-x="440" d="M-416 1327l76 84l395 -354h101l-344 463l96 53l323 -516h205v-84h-147v-973h-109v973h-180v84z" />
<glyph unicode="&#xaa;" horiz-adv-x="24" d="M-911 -293l340 369h110l322 -369h-121l-252 313l-276 -313h-123z" />
<glyph unicode="&#xab;" horiz-adv-x="663" d="M-4 973v84h760v-84h-760zM113 625q10 4 16 8q39 23 47 26l178 74l103 37q43 12 63 12q29 0 76 -34q47 -31 111 -99l100 -102l41 -41v-119l-496 -295l-63 92l508 265l-68 65l-49 47q-59 57 -105.5 87t-64.5 30q-16 0 -34.5 -2t-54.5 -13.5t-108 -48.5l-59 -30l-78 -41z " />
<glyph unicode="&#xac;" />
<glyph unicode="&#xad;" />
<glyph unicode="&#xae;" horiz-adv-x="440" d="M-260 1495l76 78l415 -516h205v-84h-147v-973h-109v973h-180v84h135z" />
<glyph unicode="&#xaf;" />
<glyph unicode="&#xb0;" />
<glyph unicode="&#xb1;" horiz-adv-x="24" d="M-383 1374q0 45 15.5 77t50 57.5t72.5 38t85 12.5l60 -7l55 -18l-2 -82l-14 4l-15 6l-39 8l-43 5q-31 0 -54.5 -10.5t-39.5 -28t-27.5 -45t-11.5 -62.5q0 -31 2 -45t15.5 -52t48.5 -91l28 -39l39 -47l-78 2q-6 4 -11 8t-17 20l-47 74q-8 14 -26.5 54t-27.5 59 q-18 55 -18 102zM-176 1233v115h125v-115h-125z" />
<glyph unicode="&#xb2;" />
<glyph unicode="&#xb3;" horiz-adv-x="1204" d="M0 973v84h1200v-84h-276v-268h-437l-12 -17l-2 -14l2 -23q4 -16 10 -24l17 -33l30 -43l31 -37l31 -25l31 -18l30 -4h13l8 2l100 29l41 12l51 12l35 4q25 0 44.5 -13t37.5 -42l16 -51l7 -58q0 -43 -4.5 -72.5t-18.5 -66.5q-20 -57 -63 -100t-105 -68q-61 -20 -125 -20 q-76 0 -149.5 29.5t-149.5 89.5q-49 39 -112 98q-51 55 -105 123l-63 86l-21 41l80 78q2 -8 3 -13.5t16.5 -32t21.5 -36t35 -45.5q29 -43 47 -67t49 -56l100 -97q68 -55 130.5 -84.5t117.5 -29.5q51 0 87 16.5t65.5 48t44 79.5t14.5 95q0 35 -13 51.5t-40 16.5 q-16 0 -47 -10q-23 -4 -34 -7t-46 -20l-43 -14l-29 -4q-49 0 -99 30.5t-97 94.5q-51 63 -75 114.5t-24 91.5l6 39q6 18 23 27l35 14l45 4l354 2v185h-819zM1044 571v121h127v-121h-127z" />
<glyph unicode="&#xb4;" horiz-adv-x="1179" d="M0 973v84h1192v-84h-148v-973h-108v449l-41 -13l-41 -2l-35 2l-33 6q-25 4 -36 11l-33 16q-8 -33 -15.5 -59.5t-19.5 -53.5l-16 -49q-41 -70 -111 -114q-68 -39 -156 -39q-53 0 -111.5 18t-119.5 49q-25 12 -47.5 24.5t-38.5 22.5q-25 18 -27 27l70 78q4 -12 27 -31 l63 -43q23 -14 50.5 -28.5t45.5 -20.5q49 -16 88 -17q47 0 85 18.5t68 57.5t44 84q6 25 10 48.5t4 50.5q0 47 -12 89t-37.5 77.5t-66.5 55t-86 19.5q-18 0 -41 -8l-45 -18l-21 -13l-25 -16l-71 82l39 14l28 14l72 25l55 8q82 0 143.5 -33.5t108.5 -103.5q16 -23 31 -57 l31 -80l18 -8l19 -7l32 -12l29 -2q41 0 68.5 7t56.5 26v422h-936z" />
<glyph unicode="&#xb5;" />
<glyph unicode="&#xb6;" horiz-adv-x="860" d="M0 973v84h856v-84h-135v-314l41 35l57 39l62 31l51 10v-90l-80 -20q-33 -12 -55 -39q-25 -23 -45 -60l-15 -30l-16 -41v-494h-109v408q-18 -23 -45 -37l-47 -23l-51 -14l-51 -4q-39 0 -55.5 2t-51.5 16t-79 52t-64 89q-8 20 -14.5 50t-6.5 59v375h-147zM252 584 q0 -51 8 -74t16.5 -37t22.5 -28.5t43 -26.5l66 -8q41 0 77.5 13t67.5 44q23 23 38 47.5t21 54.5v404h-360v-389z" />
<glyph unicode="&#xb7;" horiz-adv-x="739" d="M55 190l74 74q0 -12 29 -41l82 -67q63 -49 118.5 -74t102.5 -25h39q25 6 37 9q37 10 69.5 29.5t53 58.5t20.5 79q0 35 -34 86.5t-109 118.5l-136 111l-131 115q-37 33 -65.5 64.5t-44.5 55.5q-35 57 -35 99q0 45 13.5 75.5t40 52t61 32t52 11.5t27.5 1l429 2v-80l-433 -4 q-18 0 -34 -8l-31 -19l-23 -28l-8 -31q0 -25 35 -64t113 -104l192 -162l84 -70q76 -72 113 -132t37 -105q0 -60 -25 -113q-20 -47 -70 -84q-39 -33 -104 -53q-29 -8 -56.5 -12t-68.5 -4q-51 0 -102 14q-55 12 -113 47q-88 47 -137 83t-62 62z" />
<glyph unicode="&#xb8;" horiz-adv-x="587" d="M0 973v84h596v-84h-176l24 -33l17 -22q20 -31 33 -66q4 -16 6 -30.5t4 -30.5q0 -66 -29 -117t-90 -82l-51 -17l-70 -14l6 -18l9 -17l6 -14l6 -12q41 -68 98 -100.5t127 -32.5q41 0 80 11t80 38q27 18 36 26.5t25 26.5q25 29 43 61v-145q-26 -27 -57 -43l-64 -29l-34 -10 l-33 -8q-25 0 -37 -4l-33 -2q-43 0 -72.5 4t-70.5 18q-61 23 -118.5 73t-92.5 120q-29 70 -29 149l17 -4q14 -2 23 -4t14 -4h20l70 6q31 6 55 22.5t38.5 50.5t14.5 75q0 33 -14 61q-10 27 -37 66l-23 22l-28 27z" />
<glyph unicode="&#xb9;" />
<glyph unicode="&#xba;" horiz-adv-x="911" d="M0 973v84h911v-84h-143v-264h-487q-18 0 -29 -11l-8 -20l8 -33q12 -25 29 -43l16 -27l25 -28l4 -8l10 -9l596 2v-83h-463q-47 0 -80 -17q-31 -10 -65 -43q-31 -25 -45 -63q-6 -18 -10.5 -36t-4.5 -40q0 -70 59.5 -118t178.5 -79q51 -6 67.5 -8t51.5 -8l118 -14l-34 -74 l-46 -2q-35 0 -86 9t-92 17.5t-73 20.5q-68 18 -115 47q-68 41 -107 96q-35 57 -34 125q0 27 7 50.5t24.5 51t39.5 50.5l49 49l-43 45l-26 35q-37 47 -56 88q-4 12 -9 36.5t-7 39.5l6 36q6 14 23 29l30 16l37 7l432 2v176h-659z" />
<glyph unicode="&#xbb;" horiz-adv-x="1132" d="M29 479v88h1050v-88h-1050zM492 88v139h141v-139h-141zM492 827v142h141v-142h-141z" />
<glyph unicode="&#xbc;" horiz-adv-x="491" d="M164 526q0 117 19.5 238t58.5 225q31 94 66.5 165t80.5 146l55 84q16 25 27 29l121 2q-53 -55 -113 -153q-25 -41 -52.5 -99.5t-53.5 -122.5l-45 -129q-6 -25 -16.5 -61.5t-14.5 -65.5l-18 -129l-7 -129q0 -117 19.5 -227.5t62.5 -226.5q27 -74 68 -156q35 -76 86 -156 l41 -59l43 -61h-121l-22 30l-56 90l-82 156q-20 43 -35 80q-6 14 -30 84q-41 119 -62 229q-8 49 -14 108.5t-6 108.5z" />
<glyph unicode="&#xbd;" horiz-adv-x="516" d="M16 -360l41 61l41 59q23 35 43 74q12 23 41 80l70 158q41 115 62.5 230.5t21.5 223.5q0 123 -19.5 237t-62.5 232q-31 80 -70 158q-18 39 -37.5 75t-46.5 75l-59 81q-8 12 -21 25l-4 4l115 2l25 -31l55 -84q23 -35 43 -73q12 -23 41 -80q18 -37 41 -92q12 -29 24 -64 q37 -104 60 -231q8 -49 14 -114.5t6 -119.5q0 -112 -20 -221q-10 -66 -22.5 -113t-37.5 -112q-27 -84 -65 -158q-18 -41 -38.5 -81t-45.5 -79l-57 -92q-10 -16 -19 -26q0 -2 -4 -4h-115z" />
<glyph unicode="&#xbe;" horiz-adv-x="1155" d="M37 276v89h1050v-89h-1050zM37 680v88h1050v-88h-1050z" />
<glyph unicode="&#xbf;" horiz-adv-x="415" d="M68 551l20 16l18 13l37 30l25 31l16 31l15 41l10 41l4 32v431q0 35 3 48t15.5 45.5t44 74.5t74.5 63q18 8 38 14t50 6l27 -4l35 -6l168 2v-63h-164q-29 0 -40 -2t-41 -14.5t-60.5 -37t-49.5 -61.5q-14 -37 -14 -72v-422l-4 -34q0 -20 -8 -47q-4 -23 -6 -30t-11 -22 l-22 -37l-109 -65l21 -16l16 -9q25 -14 37 -28l27 -23l8 -14l12 -17l8 -22l11 -29l14 -55l6 -43v-418q0 -45 13.5 -75.5t41 -52t66.5 -34.5q25 -6 39 -8t45 -2h164v-80h-168q-66 0 -115 17q-47 12 -88 41.5t-62.5 81t-21.5 108.5v428q0 39 -9 71t-30.5 69.5t-48.5 62.5 q-23 25 -57 45z" />
<glyph unicode="&#xc0;" horiz-adv-x="788" d="M104 -293h160q51 0 85 10.5t61 32.5q27 16 41 53t14 76v420l4 41l16 53l21 51l26 37l25 21l35 26l14 9l23 14l-105 70l-22 26l-17 41l-16 53l-4 45v426q0 39 -14.5 69t-47.5 60q-31 25 -66.5 39.5t-72.5 14.5l-160 2v63h164l17 2l14 4l12 2h8h11q43 0 84 -19t74.5 -58 t52 -84t18.5 -93v-426l2 -38q0 -20 8 -37l13 -37l16 -33l10 -16l15 -15l16 -16l20 -16l17 -13l24 -16q-28 -14 -59 -45q-25 -25 -42 -54.5t-32 -74.5l-8 -76v-426q0 -61 -22.5 -108.5t-65.5 -77.5q-37 -31 -90 -45q-27 -8 -51.5 -12.5t-61.5 -4.5h-164v80z" />
<glyph unicode="&#xc1;" horiz-adv-x="911" d="M0 973v84h911v-84h-139v-973h-108v444l-512 -444l-80 72l344 272q-55 0 -102.5 18.5t-81 58.5t-56.5 93q-8 27 -12 51.5t-4 61.5v346h-160zM264 612q0 -47 15.5 -83.5t46.5 -61.5q23 -18 53 -35q18 -6 61 -10q25 0 36 3t30.5 13.5t38 20.5t43.5 30l30 27l41 41v416h-395 v-361z" />
<glyph unicode="&#xc2;" />
<glyph unicode="&#xc3;" horiz-adv-x="911" d="M0 973v84h586l-41 59l-39 74l-39 98q-12 47 -12 86q0 45 15 76t50 59q35 25 73 37.5t85 12.5l59 -7l56 -18v-82l-17 4l-14 6l-41 8l-41 5q-31 0 -55.5 -10.5t-41 -28t-28.5 -45.5l-8 -62q0 -39 8 -66.5t16.5 -48t20.5 -45.5l33 -57l39 -57l260 2v-84h-232v-268h-428 l-6 -9l-6 -10l2 -29l8 -22l19 -31l30 -39l37 -41l23 -24l32 -27l29 -6q27 0 54.5 6t45 11t54.5 20l49 14l41 4q23 0 45 -13t35.5 -31.5t23.5 -51.5l8 -55q0 -72 -22 -129q-16 -51 -61 -103q-20 -20 -47 -40.5t-52 -37.5q-53 -27 -98 -26l22 -25l21 -14l45 -39l37 -33l82 -53 l57 -35l-55 -88l-31 21l-22 14q-14 8 -30 19.5t-32 27.5l-61 53l-43 37l-52 51l-38 35l-17 21h-39h-33q-20 4 -38.5 6t-29.5 4t-30 10q-49 16 -74 49q-10 14 -16 35t-6 47l6 35q6 18 21 33l28 20l39 8q33 0 71 -19t79 -60l26 -35l37 -45q35 0 72 10q35 6 51 16q63 29 94 80 t31 117l-2 39q0 23 -4 31q0 12 -10 18l-21 8l-33 -8l-67 -25l-78 -22l-57 -8q-37 0 -84.5 32.5t-94.5 97t-72.5 114t-25.5 83.5l6 31l23 29l33 20l34 8l357 2v185h-584z" />
<glyph unicode="&#xc4;" horiz-adv-x="1097" d="M0 973v84h1122v-84h-198v-973h-109v313l-72 -41l-65 -28l-96 -31q-47 -10 -86 -10q-20 0 -44 1t-61 15q-47 14 -92 47t-70 76q-20 45 -20 92q0 37 13.5 72t43.5 69l23 23l35 29l-50 20l-32 21q-41 29 -61.5 67.5t-20.5 81.5l4 41l14 47l21 41l20 25zM264 825 q0 -31 12.5 -55.5t40.5 -46.5q14 -12 23.5 -17.5t21.5 -11.5l50 -8l176 2l37 -76h-113q-31 0 -66 -14q-33 -10 -63.5 -32.5t-49 -57.5t-18.5 -74q0 -35 13.5 -60.5t43 -46t64.5 -32.5l76 -8q16 0 37.5 2t41 8t44 14t47.5 21q27 10 35 15t28 20l70 47v559h-467l-24 -23 l-17 -16l-33 -53q-6 -16 -10 -56z" />
<glyph unicode="&#xc5;" horiz-adv-x="1376" d="M0 973v84h1397v-84h-649l24 -35l16 -25q20 -35 33 -71q2 -10 5 -28.5t5 -39.5q0 -63 -27.5 -110.5t-86.5 -81.5l59 -41l15 -17l24 -26l4 -6l8 -7l37 39l31 31l43 31l43 22l41 15l43 4q45 0 83 -16.5t75 -53.5q31 -35 48 -77t17 -87q0 -27 -2 -43t-11 -48t-15.5 -48 t-24.5 -53q-33 -68 -64.5 -114t-58.5 -73l-96 58l49 57l37 47q41 57 63.5 115.5t22.5 105.5l-6 54l-19 45q-14 25 -42.5 38t-59.5 13q-33 0 -65.5 -19.5t-69.5 -56.5l-25 -33l-29 -45v-10v-8v-13l2 -14q0 -27 -2 -53.5t-10 -65.5t-31 -73q-35 -61 -93 -91t-142 -30 q-80 0 -150.5 39t-134.5 121q-39 53 -84 133q-33 66 -65 164l-35 114q-8 43 -6 51l88 68l18 -80l19 -78q23 -82 55 -164q14 -35 29.5 -65.5t36.5 -58.5q49 -76 104 -117q59 -39 121 -39q51 0 87 15.5t56 45.5l21 54l8 75q0 49 -10 80q-6 39 -27 68q-18 33 -49 51t-66 18 l-159 2l-41 89h188l37 12q16 6 27 16q29 23 46 56.5t17 76.5q0 29 -13.5 60.5t-39.5 68.5l-23 25l-30 35z" />
<glyph unicode="&#xc6;" horiz-adv-x="440" d="M0 973v84h188l-6 6l-6 27l-18 67l-6 57q0 66 20.5 117t64.5 95t105 68t129 24q86 0 174 -35q90 -31 193 -99q31 -16 75 -55q39 -29 95 -80l-9 17l-2 14l-8 43l-2 51q0 45 14.5 77t46 57.5t68.5 38t84 12.5l66 -7l57 -18v-82l-16 4l-13 6l-39 8l-38 5q-35 0 -58.5 -10.5 t-43 -30t-30 -46t-10.5 -59.5q0 -31 2 -45t15.5 -47t23.5 -52.5t29 -43.5l29 -39l43 -47l-121 2l-52 45l-49 49q-61 55 -71 63q-35 25 -50 35l-122 82q-82 49 -155 74t-132 25q-47 0 -82 -17q-39 -12 -68.5 -44t-48.5 -75q-6 -20 -10 -44.5t-4 -51.5l2 -41l12 -45l15 -41 l8 -16l147 2v-84h-147v-973h-109v973h-180z" />
<glyph unicode="&#xc7;" horiz-adv-x="442" d="M0 973v84h186l-8 18l-12 51l-12 56l-2 32q0 66 20.5 117t64.5 95t105 68t129 24q74 0 163 -30t187 -89q72 -43 144 -101l147 -122l59 -62l62 -59l-137 2l-52 45l-49 49q-61 55 -71 63q-35 25 -50 35l-122 82q-82 49 -155 74t-132 25q-47 0 -82 -17q-39 -12 -68.5 -44 t-48.5 -75q-6 -20 -10 -44.5t-4 -51.5l2 -41l10 -47l12 -39l9 -16l178 2v-84h-174v-973h-109v973h-180zM1137 1255v134h141v-134h-141z" />
<glyph unicode="&#xc8;" horiz-adv-x="440" d="M-428 1223q0 51 18 100q14 47 49 89t81.5 63.5t97.5 21.5q74 0 152.5 -55.5t160.5 -165.5l59 -92l74 -129l195 2v-84h-172v-973h-107v973h-180v84h156q12 12 -27 73.5t-135 172.5q-49 55 -93 84.5t-79 29.5q-33 0 -59.5 -13t-43 -38t-23.5 -48.5t-10 -37.5t-3 -39 q0 -27 8 -53q2 -8 8 -26.5t14 -35.5l27 -51l14 -20l-119 2l-24 33l-21 40l-14 46zM276 1184v133h142v-133h-142z" />
<glyph unicode="&#xc9;" horiz-adv-x="440" d="M0 973v84h188l-6 6l-6 27l-18 67l-6 57q0 66 20.5 117t64.5 95t105 68t129 24q86 0 174 -35q90 -31 193 -99q31 -16 75 -55q39 -29 95 -80l-9 17l-2 14l-8 43l-2 51q0 45 14.5 77t46 57.5t68.5 38t84 12.5l66 -7l57 -18v-82l-16 4l-13 6l-39 8l-38 5q-35 0 -58.5 -10.5 t-43 -30t-30 -46t-10.5 -59.5q0 -31 2 -45t15.5 -47t23.5 -52.5t29 -43.5l29 -39l43 -47l-121 2l-52 45l-49 49q-61 55 -71 63q-35 25 -50 35l-122 82q-82 49 -155 74t-132 25q-47 0 -82 -17q-39 -12 -68.5 -44t-48.5 -75q-6 -20 -10 -44.5t-4 -51.5l2 -41l12 -45l15 -41 l8 -16l147 2v-84h-147v-973h-109v973h-180zM1196 1233v115h121v-115h-121z" />
<glyph unicode="&#xca;" horiz-adv-x="440" d="M-428 1223q0 51 18 100q14 47 49 89t81.5 63.5t97.5 21.5q74 0 152.5 -55.5t160.5 -165.5l59 -92l74 -129l195 2v-84h-172v-973h-107v973h-180v84h156q12 12 -27 73.5t-135 172.5q-49 55 -93 84.5t-79 29.5q-33 0 -59.5 -13t-43 -38t-23.5 -48.5t-10 -37.5t-3 -39 q0 -27 8 -53q2 -8 8 -26.5t14 -35.5l27 -51l14 -20l-119 2l-24 33l-21 40l-14 46zM158 1415q0 45 15 76t50 59q35 25 73 37t85 12l59 -6l56 -18v-82l-17 4l-14 6l-41 8l-41 5q-31 0 -55.5 -10.5t-41 -28t-28.5 -45.5l-8 -62q0 -31 2 -45t16.5 -52t46.5 -91l27 -39l41 -47 l-76 2q-14 0 -31 28l-47 74q-37 59 -55 113q-8 29 -12 52.5t-4 49.5z" />
<glyph unicode="&#xcb;" horiz-adv-x="540" d="M16 866q0 43 14.5 81t41 66.5t65.5 44t86 15.5q35 0 69 -11t62.5 -33.5t43 -53.5t14.5 -62v-61h-93v63q0 37 -22.5 59.5t-69.5 22.5q-27 0 -44 -10t-31 -29l-21 -40l-6 -48q0 -43 10 -75q4 -12 14.5 -33t20.5 -35q31 -43 57 -70q25 -18 49 -22l70 20l80 9l37 -2l41 -5 l45 -77l-137 -7q-49 0 -80 -10q-61 -14 -94 -52t-33 -97q0 -31 12 -55.5t38 -44t58 -31.5l64 -9q66 0 124 22.5t128 74.5l45 41l53 57v-109q0 -13 -29 -36l-73 -52q-61 -41 -131 -61q-29 -8 -67 -14.5t-71 -6.5q-51 0 -95 15.5t-86 47.5t-62.5 74t-20.5 83q0 33 12.5 66.5 t38.5 66.5l21 20l33 27q-18 8 -31.5 18t-30.5 29q-29 31 -63 76q-12 18 -23 37q-2 4 -18 38q-6 18 -10.5 37t-4.5 41zM508 973v84h41v-84h-41z" />
<glyph unicode="&#xcc;" horiz-adv-x="788" d="M0 973v84h801v-84h-164v-213h-334l-33 -6l-22 -2q-23 -6 -38 -24.5t-17 -49.5q0 -29 9 -49.5t31 -44.5l27 -25l21 -8l92 29l8 -2l10 2h8h9l14 2h10h8h13l8 -2h10l18 -2h15l49 -86h-18l-21 4h-12l-13 2h-14h-14h-29.5t-42.5 -9l-57 -18q-29 -16 -51 -49q-16 -33 -17 -72 q0 -33 2 -48t17.5 -45t50.5 -52l57 -23l72 -8l35 2l22 6l-4 8v11v12v16q0 29 4 43l15 35q12 20 32 33q25 10 54 10q23 0 38 -7t28 -21.5t20 -34.5l6 -41l-6 -41l-19 -35q-14 -16 -29 -25l-34 -8l106 -184l-90 -49l-92 209l-8 -7l-19 -2l-28 -4h-31q-70 0 -116 11.5t-81 31.5 q-53 31 -84 84q-6 12 -16 47t-10 80q0 25 4 37l14 41l33 49l12 21l-39 26l-26 21q-33 33 -50 63q-8 16 -12 30.5t-4 35.5q0 43 11.5 72.5t32 45t34.5 21.5t33.5 12.5t36 7.5t24.5 1l272 2v133h-532z" />
<glyph unicode="&#xcd;" horiz-adv-x="983" d="M0 973v84h999v-84h-219v-213h-432q-49 0 -72.5 -29t-23.5 -82q0 -43 24.5 -80t75.5 -67q35 -20 94 -41q25 -6 49.5 -10.5t53.5 -4.5q61 0 105 11.5t62.5 18.5t49.5 26l35 22l39 33l80 -61l-76 -52l-64 -32v-232h-411q-23 0 -41 -10q-14 -4 -35 -25l-23 -34l-6 -41 q0 -49 25.5 -85t87.5 -69q41 -18 88 -31q33 -6 49 -8t53 -2q31 0 55.5 5t44 11.5t38.5 14.5l94 43q37 18 53 35l72 -64l-62 -43l-86 -43q-25 -10 -39 -14t-55 -12.5t-57.5 -10.5t-53.5 -2q-68 0 -93 3t-81.5 15.5t-116 49.5t-90.5 92q-31 49 -30 119q0 37 11 67.5t32.5 55 t55.5 39t65 14.5l356 2v133l-47 -10l-33 -2h-25h-16q-82 0 -133 11t-82 22.5t-61 27.5q-66 37 -103 90q-33 59 -33 125q0 45 12.5 81t39 57.5t61.5 34t76 12.5l344 2v137h-680z" />
<glyph unicode="&#xce;" horiz-adv-x="983" d="M0 973v84h999v-84h-219v-213h-432q-47 0 -75.5 -29t-28.5 -82q0 -43 20 -84q20 -33 65.5 -62.5t100.5 -45.5q31 -6 57.5 -10.5t61.5 -4.5q57 0 101 10.5t64.5 17.5t47.5 26l33 20l36 35l76 -64l-63 -43l-64 -32v-232h-465q-20 0 -36.5 -8t-34.5 -27l-23 -34l-8 -41 q0 -49 27 -90q29 -37 86 -68q16 -8 41.5 -17.5t69.5 -19.5t108 -10l84 6l69 18q41 14 61.5 42t20.5 61q0 23 -7 40t-21 36l-13 8l-18 10l67 66l29 -35l23 -23q20 -23 32.5 -49.5t12.5 -44.5q0 -59 -29 -102q-25 -43 -82 -70q-41 -20 -96 -30.5t-84 -11.5t-45 -1 q-90 0 -169 19.5t-142.5 54.5t-98.5 91t-35 124q0 31 12.5 62.5t37 58t53.5 41.5q37 14 65 14l408 2v133q-39 -12 -78 -18l-78 -5q-61 0 -84.5 3.5t-60.5 13.5q-61 16 -119.5 51t-89.5 91.5t-31 127.5q0 49 15 80q12 35 37.5 55.5t63.5 35t81 14.5l344 2v137h-680z" />
<glyph unicode="&#xcf;" horiz-adv-x="1079" d="M0 973v84h1075v-84h-164v-234h-458l-17 -6l-4 -10l2 -12l4 -9l25 -30l41 -41l28 -25l31 -16l35 -8l39 -2l35 2l45 6l92 14l51 4q41 0 66.5 -10t39 -25.5t19.5 -42.5l6 -55q0 -59 -28.5 -104t-90.5 -82q-10 -6 -35.5 -16.5t-68.5 -24.5q-55 -12 -117 -13h-30h-27 q-18 4 -27 5l-75 16l-29 8l-31 12l31 -51l26 -35q12 -16 32 -35.5t32 -29.5q27 -16 55 -21l43 2l51 11l111 22l59 8q27 0 46 -10q23 -6 40 -22.5t31 -40.5q6 -14 10 -45q0 -59 -28 -109q-23 -47 -82 -84q-47 -31 -109 -45q-29 -8 -56.5 -12t-68.5 -4q-106 0 -207.5 31.5 t-199.5 97.5l-74 55l-86 74l64 73q47 -47 81 -73q16 -14 40 -28.5t30 -18.5q94 -61 182 -92t170 -31q43 0 86 12q16 4 39 14.5t41 20.5q37 23 54.5 48.5t21.5 57.5q-2 14 -5 22.5t-7 12.5l-19 8l-26 4l-37 -8l-103 -20l-61 -13l-51 -2q-39 0 -79 18.5t-85 60.5t-65.5 88 t-20.5 85v9l2 12v8l4 10l-65 41l-68 47l-35 25l-33 24l-32 23l-31 25l59 86l86 -78l70 -53q98 -66 186 -99t162 -33h33q27 6 47 10.5t31.5 9.5t36.5 17q51 23 74.5 52.5t23.5 66.5q0 14 -3 22.5t-16 14.5l-22 6l-29 2l-43 -4l-63 -14l-70 -15l-55 -4q-29 0 -70 21 q-37 23 -87 64.5t-83 84.5q-25 41 -24 74l6 41q6 18 22 29l33 16l39 6l381 2v154h-805z" />
<glyph unicode="&#xd0;" />
<glyph unicode="&#xd1;" horiz-adv-x="1304" d="M0 973v84h1300v-84h-569v-309l37 34l25 21q35 25 73.5 38t69.5 13q63 0 110.5 -19.5t90.5 -58.5q37 -33 58.5 -83t21.5 -103q0 -55 -25 -114.5t-82 -135.5l-45 -55l-61 -68l-89 68q6 2 13.5 6t19.5 16q27 27 64 78q45 57 68.5 113.5t23.5 99.5q0 41 -8.5 65.5t-13.5 35 t-18 26.5t-45 30.5t-71 14.5q-45 0 -82 -21.5t-73 -68.5q-27 -33 -48 -80q-6 -18 -10 -36.5t-4 -41.5v-438h-106v303q-35 -35 -85.5 -55.5t-105.5 -20.5q-57 0 -108.5 19.5t-97.5 60.5t-68 90q-20 55 -21 113q0 59 19.5 108.5t63.5 89.5t93 60q23 8 50.5 14t56.5 6l55 -6 q37 -8 55 -16v-86l-49 16l-45 6q-37 0 -68.5 -13t-62.5 -40q-20 -20 -41 -61q-14 -37 -14 -74t12 -77t38 -69.5t58 -48.5q37 -14 72 -14q37 0 64.5 11.5t56.5 35.5l27.5 27.5t25.5 30.5q18 29 19 53v510h-625zM352 -219q0 51 13.5 88t42 66.5t71.5 50.5q18 6 39 10t45 4h168 v-80h-139q-27 0 -48.5 -8t-42 -28.5t-32.5 -45.5l-8 -51q0 -37 14 -63q12 -31 41 -50q16 -10 28.5 -17t39 -15.5t63.5 -8.5q51 0 90 17q37 12 72 43l51 -80l-35 -21l-28 -14q-43 -16 -83 -24.5t-57.5 -9.5t-27.5 -1q-55 0 -99 17q-45 12 -86 45t-69 80q-23 45 -23 96z" />
<glyph unicode="&#xd2;" horiz-adv-x="1011" d="M8 866q0 47 13.5 81t45 59.5t68.5 38t80 12.5q39 0 76 -12.5t64.5 -35t42 -58.5t14.5 -74v-277h321v373h-201v84h508v-84h-198v-973h-109v512h-321v-164v-22l-2 -13l-17 -14l-20 -4q-20 0 -54 25.5t-90 82.5l-77 93q-23 35 -27 55l6 16l16 17l19 10l14 4l123 2v287 q0 20 -7 35.5t-20.5 29t-29 19.5t-35.5 6q-18 0 -41 -8l-35 -19l-22 -32l-9 -44l2 -28l11 -31l4 -14l10 -19l-102 2l-9 15l-2 12l-8 29z" />
<glyph unicode="&#xd3;" horiz-adv-x="1007" d="M-188 748q47 6 71 16l56 14l145 25q66 8 91.5 9t39.5 1q33 0 65.5 -2t61.5 -8q57 -6 101 -28.5t71 -61.5q6 -10 16.5 -34t10.5 -56q0 -59 -22.5 -99.5t-65.5 -66.5q-31 -16 -86 -33q-45 -8 -72 -9t-43 -1q12 -43 32.5 -76t51.5 -58.5t70 -41.5q37 -12 81 -13 q45 0 92.5 18.5t98.5 57.5l35 31l43 47v594h-756v84h1008v-84h-144v-973h-108v260q-8 -12 -17 -16l-34 -23q-63 -37 -119 -55q-27 -8 -53.5 -12t-57.5 -4q-76 0 -135 25.5t-107.5 81.5t-78.5 122q-25 61 -25 123l47 -13l60 -4l73 7q37 6 64.5 21t45 42t17.5 59 q0 33 -15 55.5t-50 39.5l-72 20l-86 8l-94 -6l-105 -18q-78 -16 -123 -33q-49 -12 -77 -27z" />
<glyph unicode="&#xd4;" horiz-adv-x="1079" d="M0 973v84h1075v-84h-164v-185h-458l-15 -6l-4 -6l2 -10l13 -14l18 -21l29 -24l39 -27l28 -18l25 -11l24 -2l37 2l43 6l107 19l55 6l57 -6q23 -6 40.5 -19.5t28.5 -41t11 -62.5q0 -47 -15 -80t-52 -65l-29 -23l-39 -23v-206h-453q-20 0 -38 -9l-35 -18l-23 -29l-8 -34 q0 -55 30.5 -99.5t96.5 -72.5l51 -19l76 -18q0 23 -4 34l-2 31q0 33 7 56.5t26.5 46t61.5 38t93 15.5q45 0 78 -10q37 -6 68 -25q31 -14 45 -37.5t18 -60.5q0 -49 -21.5 -84t-68.5 -58q-39 -16 -87 -25t-103 -9q-111 0 -196 19t-145.5 60t-93 98.5t-32.5 131.5q0 27 12 52.5 t36.5 48t57.5 34.5t66 12l383 2v97l-13 -5l-28 -2l-33 -2h-23l-73 2q-16 0 -28.5 2.5t-39.5 8.5l-70 18l-71 33l-94 47q-41 20 -58 35l-76 53l-65 64l59 77l82 -77l70 -52q86 -57 180 -96q94 -33 172 -33q41 0 74 9q39 6 74 26q51 23 74.5 52.5t23.5 68.5q0 14 -3 22.5 t-16 14.5l-22 6l-29 2l-43 -4l-63 -14l-70 -15l-55 -4q-33 0 -64.5 14.5t-46 22.5t-47.5 31q-51 37 -80 73q-6 8 -16 30t-10 42l6 39q6 16 20 29l33 14l41 6l381 2v109h-805zM643 -143h10l17 -2h10l10 -2h10h11q35 0 51 4q25 0 39 8q18 6 32.5 23.5t14.5 39.5q0 17 -8 25 l-21 8q-16 0 -45 -12l-63 -39l-29 -21z" />
<glyph unicode="&#xd5;" />
<glyph unicode="&#xd6;" horiz-adv-x="759" d="M0 973v84h768v-84h-113v-260h-391l-14 -11l-4 -10l2 -20l10 -23l21 -35l36 -45l25 -26l27 -17l26 -8l35 -2l33 2q25 0 55 8l53 9l35 4q20 0 34.5 -4.5t29.5 -14.5l32 -22l21 -9l53 -16l51 -4l58 6q27 6 51 21l8 4l10 10v-102l-16 -2h-14l-17 -3h-12l-29 -4h-28h-29 q-16 0 -25 4l-12 3q-10 2 -12 4l-15 4l-12 8v-57q0 -53 -19.5 -96.5t-60.5 -78.5q-49 -43 -97 -65.5t-89 -22.5l94 -59l109 -47l-64 -80l-129 80l-31 18l-36 27l-33 27l-19 18l-49 2h-69q-25 2 -51.5 13.5t-43.5 33.5q-10 18 -14 55l6 31l19 31l26 18l33 9q20 0 31 -5 q14 0 30 -10l29 -16l31 -23l20 -22l27 -33l70 14q35 6 51 17q63 29 93 71.5t30 106.5q0 23 -4 31l-13 20l-18 12l-25 4l-35 -4l-47 -12l-47 -12l-28 -4l-46 6q-23 6 -45 19.5t-47 33.5l-45 47q-43 53 -67 98q-23 49 -23 84q0 29 11.5 47.5t31.5 30.5l29 11l37 4l305 2v176 h-549z" />
<glyph unicode="&#xd7;" />
<glyph unicode="&#xd8;" horiz-adv-x="1304" d="M0 973v84h1341v-84h-610v-309l37 34l25 21q35 25 73.5 38t69.5 13q63 0 110.5 -19.5t90.5 -58.5q37 -33 58.5 -83t21.5 -103q0 -55 -25 -114.5t-82 -135.5l-45 -55l-61 -68l-89 68q6 2 13.5 6t19.5 16q27 27 64 78q45 57 68.5 113.5t23.5 99.5q0 41 -8.5 65.5t-13.5 35 t-18 26.5t-45 30.5t-71 14.5q-45 0 -82 -21.5t-73 -68.5q-27 -33 -48 -80q-6 -18 -10 -36.5t-4 -41.5v-438h-106v332l-486 -324l-59 80l297 176l-70 19q-35 10 -49 22q-55 33 -90 86q-29 51 -29 119q0 57 21.5 107.5t64.5 87.5q43 41 94 61q20 8 50 14t59 6l53 -6 q27 -4 51 -14v-86l-49 16l-45 6q-37 0 -68.5 -13t-62.5 -40q-20 -20 -41 -61q-14 -37 -14 -74t13.5 -69.5t40 -58.5t61.5 -44q37 -14 65 -14q25 0 39 4l41 18l113 78v545h-625z" />
<glyph unicode="&#xd9;" horiz-adv-x="712" d="M0 973v84h805v-84h-805zM43 672v80h856v-80h-371q-41 0 -72.5 -14.5t-61 -39t-44 -59.5t-14.5 -70q0 -57 32.5 -123.5t96.5 -142.5l53 -61l78 -76l-64 -78l-86 90l-61 74q-72 94 -113 174q-37 80 -36 143q0 37 10 65t15 36t20 28l36 37l15 15z" />
<glyph unicode="&#xda;" horiz-adv-x="516" d="M0 973v84h520v-84h-520zM68 565v86q12 -14 49 -30l94 -31l88 -19l82 -6l59 6l64 19l22 10l29 14v-102l-27 -14l-20 -9l-55 -16l-50 -4l-81 6q-45 6 -86 21l-101 32z" />
<glyph unicode="&#xdb;" horiz-adv-x="587" d="M129 518q0 43 12.5 80t40 68.5t66.5 49t88 17.5q33 0 48 -2t40 -14q37 -14 64.5 -47t41 -73t13.5 -77q-1 -41 -15 -82q-12 -39 -39.5 -70.5t-66.5 -48.5q-43 -14 -86 -14q-51 0 -88 14.5t-66 47.5q-14 18 -25.5 38.5t-15.5 28.5q-12 37 -12 84z" />
<glyph unicode="&#xdc;" horiz-adv-x="759" d="M76 479l160 96l36 21l66 45l12 8l19 13l-43 28l-27 27q-37 37 -54.5 75.5t-17.5 81.5t14.5 77t46 59.5t71.5 39t77 13.5q45 0 80 -13.5t68.5 -39t50.5 -58.5q10 -25 13 -39t3 -39t-4 -36l-10 -35q-6 -20 -21 -37l-24 -37l-25 -29l-35 -30l19 -13l18 -10l17 -10l18 -8 l41 -23l23 -12q8 -2 15 -5t30 -18l112 -55l88 -43l31 -14v-99l-348 181l-43 16l-47 25l-21 10l-28 18l-150 -102l-41 -31l-59 -39l-47 -28l-21 -13zM324 874q0 -27 7 -49t27 -43q25 -31 45.5 -44t40.5 -15l29 20l21 19q25 25 37 49.5t14 54.5q0 29 -10 47q-6 20 -25 39 l-39 25l-43 8q-20 0 -37.5 -7t-36.5 -22l-22 -34z" />
<glyph unicode="&#xdd;" horiz-adv-x="1280" d="M0 973v84h1292v-84h-571v-305l20 18l43 31q33 20 65 32.5t58 12.5q55 0 103.5 -18.5t88.5 -54.5t60.5 -84t20.5 -99q0 -66 -26 -130.5t-75 -133.5l-37 -41l-69 -72l-88 72l53 39l39 36q45 51 69.5 112t24.5 126q0 37 -9 62.5t-28.5 49t-51.5 38t-71 14.5 q-35 0 -68.5 -22.5t-68.5 -69.5q-12 -12 -24 -39l-29 -53v-494h-109v408l-436 -340l-76 71l316 213l-17 -4h-14l-45 2l-39 10l-51 25l-45 37l-27 35q-12 20 -18 41l-10 47l-3 53v375h-147zM252 584q0 -51 8 -74t16.5 -37t22.5 -28.5t43 -26.5l66 -8q41 0 77.5 13t67.5 44 q23 23 38 47.5t21 54.5v404h-360v-389z" />
<glyph unicode="&#xde;" horiz-adv-x="540" d="M104 920l89 292h118l-118 -292h-89zM307 915l84 293h125l-121 -293h-88z" />
<glyph unicode="&#xdf;" horiz-adv-x="563" d="M104 932l119 293h88l-84 -293h-123zM307 928l121 293h88l-88 -293h-121z" />
<glyph unicode="&#xe0;" horiz-adv-x="911" d="M0 973v84h911v-84h-143v-264h-487q-18 0 -29 -11l-8 -20l8 -33q12 -25 29 -43l16 -27l25 -28l4 -8l10 -9l592 -2l4 -528h-47l-2 279h-230v-107v-12q-6 -16 -10 -21l-16 -4q-2 0 -7.5 2t-19.5 15l-45 49l-41 53l-14 31l2 16q4 10 8 12l12 6l23 7l338 2l2 121h-416 q-47 0 -80 -17q-31 -10 -65 -43q-31 -25 -45 -63q-6 -18 -10.5 -36t-4.5 -40q0 -70 59.5 -118t178.5 -79q51 -6 67.5 -8t51.5 -8l118 -14l-34 -74l-46 -2q-35 0 -86 9t-92 17.5t-73 20.5q-68 18 -115 47q-68 41 -107 96q-35 57 -34 125q0 27 7 50.5t24.5 51t39.5 50.5l49 49 l-43 45l-26 35q-37 47 -56 88q-4 12 -9 36.5t-7 39.5l6 36q6 14 23 29l30 16l37 7l432 2v176h-659z" />
<glyph unicode="&#xe1;" horiz-adv-x="1376" d="M0 973v84h1372v-84h-147v-973h-109v231q-66 -70 -149.5 -106.5t-171.5 -36.5q-92 0 -170 39q-74 41 -129 123h10l8 -2h8h13q35 0 52 4t25.5 7t18.5 9q29 16 43 43t14 60t-10 51q-6 18 -27 31l-8 2l-8 4h-10q-10 2 -13 4l-243 2q-16 0 -41 -19q-14 -10 -41 -43 q-18 -29 -31 -63l-8 -74q0 -57 45 -114q20 -25 56 -52.5t85 -56.5l121 -59q45 -16 74 -21l-76 -72q-16 -6 -65.5 16.5t-145.5 82t-149.5 130t-53.5 142.5l6 78q6 37 23 57l27 31l53 53l-35 39l-23 33q-29 41 -44 83t-15 71l6 36q6 14 23 29l30 16l37 7l432 2v176h-659z M242 672l6 -35q6 -20 22 -41l29 -35l25 -18l340 2l38 -19q16 -6 27 -16q33 -25 50.5 -57.5t17.5 -69.5q0 -35 -12.5 -69.5t-34.5 -61.5l-21 -21l-29 -20l33 -16l33 -13l31 -10l22 -2q59 0 113 27q57 25 106 77l35 43l43 62v594h-348v-264h-487q-18 0 -31 -13q-4 -4 -8 -24z " />
<glyph unicode="&#xe2;" horiz-adv-x="983" d="M0 973v84h999v-84h-143v-264h-575q-20 0 -27.5 -7.5t-11.5 -27.5q0 -23 10 -43l31 -51l41 -45l32 -21l27 8l55 15l66 12l55 4q78 0 141.5 -12.5t110.5 -37t71.5 -62.5t24.5 -95q0 -31 -18.5 -57.5t-52.5 -38.5l-48 -10l-92 -15q-39 0 -57 -4q-23 0 -43.5 -9t-33.5 -27.5 t-13 -47.5q0 -25 13 -46t42 -32l58 -18l63 -6l61 6q14 2 31 8t35 14l12 5l17 10l43 -86q-20 -10 -33.5 -14.5t-60 -14.5t-101.5 -10q-29 0 -55.5 2t-65.5 10t-73 31q-45 23 -68 60.5t-23 88.5q0 43 13.5 78t46.5 56q27 20 75 30t79.5 11.5t50.5 1.5l34 2h29l23 6l12 12l4 25 q0 31 -23 51q-16 18 -63 35l-72 12l-94 4q-45 0 -64.5 -2t-63.5 -15.5t-95 -48.5q-41 -29 -70 -73q-23 -41 -22 -92q0 -31 4 -54.5t19.5 -67.5t58.5 -98q61 -74 108 -114q47 -35 82 -39l-72 -80q-41 6 -92 53t-119 135q-41 55 -71 129q-23 68 -23 136q0 35 7.5 66.5 t27.5 60.5l35 47l55 55l-39 43l-26 35l-52 88q-12 33 -16 74l6 36q6 14 23 29l30 16l37 7l521 2v176h-748z" />
<glyph unicode="&#xe3;" horiz-adv-x="1404" d="M0 973v84h1409v-84h-149v-973h-107v205h-334v-113l-2 -22q-2 -10 -4 -13l-16 -12l-21 -4q-20 0 -47 18.5t-71 62.5t-61 71.5t-22 48.5l3 16l10 12l16 6l25 7l80 2v172h-293q-35 0 -60.5 -14.5t-46 -41t-33.5 -63.5l-8 -72q0 -55 42 -111.5t134 -111.5l113 -59 q43 -16 72 -21l-76 -72q-25 0 -77 27t-122 76q-92 61 -143 131q-23 33 -35 67.5t-12 69.5l6 66q6 33 18.5 54t30.5 40l45 47l-39 43l-26 35l-52 86q-12 33 -16 74l6 36q6 14 23 29l30 16l37 7l432 2v176h-659zM246 674q0 -20 7 -39t28 -45l32 -37q8 -6 27 -10l479 2v-260 h334v688h-385v-264h-487q-18 0 -24.5 -7.5t-10.5 -27.5z" />
<glyph unicode="&#xe4;" horiz-adv-x="1452" d="M0 973v84h1460v-84h-571v-242l76 33q43 12 90 12q63 0 117.5 -19.5t100.5 -55t72.5 -86t26.5 -109.5q0 -55 -26 -123q-12 -35 -31 -73t-47 -83l-45 -65l-60 -84l-88 61q6 6 10 8q12 10 23 27l61 96q43 74 68 136q10 27 16.5 55t6.5 53q0 37 -12.5 67.5t-37 55.5t-55.5 37 t-68 12q-25 0 -48 -2t-46 -8q-37 -6 -67 -25l-29 -22l-8 -19v-610h-105v664h-256q-39 0 -71.5 -13.5t-61 -38t-45.5 -55.5q-14 -37 -14 -68q0 -57 25.5 -125.5t78.5 -150.5l43 -63l62 -84l-88 -54l-66 90l-45 72q-49 82 -84 172q-27 86 -26 143q0 35 11 66t34 57l36 35 l15 15l-289 2v88h741v221h-784z" />
<glyph unicode="&#xe5;" horiz-adv-x="897" d="M152 467q0 70 24.5 131t74.5 111.5t115.5 77t129.5 26.5q72 0 134 -25.5t115.5 -75.5t80 -113.5t26.5 -131.5q0 -72 -23 -129t-69 -105q-43 -49 -105 -73q-27 -10 -60.5 -16.5t-70.5 -6.5q-76 0 -136 23.5t-117.5 69.5t-90.5 108q-29 61 -28 129zM256 401q0 -27 3 -39 t15.5 -35.5t47.5 -56.5q27 -20 69 -41q37 -12 80 -12q49 0 96 21.5t91 65.5t71 100.5t27 117.5q-1 43 -15 78q-12 35 -43 64q-25 27 -65 41q-18 6 -39 10t-45 4q-59 0 -115 -25q-47 -25 -94 -73q-41 -47 -62.5 -104.5t-21.5 -115.5z" />
<glyph unicode="&#xe6;" horiz-adv-x="1007" d="M0 973v84h1004v-84h-220v-260h-399q-68 0 -104 -43q-33 -43 -33 -123q0 -57 21.5 -101.5t62.5 -77t96 -55.5q27 -8 51.5 -12t61.5 -4l20 2l31 4l24 4l13 2l-2 19q0 16 10 37q14 53 43 82.5t68 29.5q23 0 38 -7t28 -20.5t20 -31.5l6 -37q0 -27 -7.5 -49.5t-22.5 -46 t-38 -37.5q-14 -6 -45 -10l4 -27l4 -21l10 -51l15 -45l24 -59l35 -55l21 -29l20 -23h-121l-37 84l-24 60q-16 35 -27 80l-8 73l-424 -309l-63 88l376 223q-31 0 -59.5 2t-53 7.5t-42 8.5t-41.5 15q-98 37 -147.5 109.5t-49.5 177.5q0 57 13.5 98t43 77t67.5 52.5t81 16.5 l332 2v180h-676z" />
<glyph unicode="&#xe7;" horiz-adv-x="911" d="M0 973v84h911v-84h-139v-973h-108v444l-512 -444l-80 72l344 272q-55 0 -102.5 18.5t-81 58.5t-56.5 93q-8 27 -12 51.5t-4 61.5v346h-160zM264 612q0 -47 15.5 -83.5t46.5 -61.5q23 -18 53 -35q18 -6 61 -10q25 0 36 3t30.5 13.5t38 20.5t43.5 30l30 27l41 41v416h-395 v-361z" />
<glyph unicode="&#xe8;" horiz-adv-x="540" d="M16 866q0 43 14.5 81t41 66.5t65.5 44t86 15.5q35 0 69 -11t62.5 -33.5t43 -53.5t14.5 -62v-61h-93v63q0 37 -22.5 59.5t-69.5 22.5q-27 0 -44 -10t-31 -29l-21 -40l-6 -48q0 -43 10 -75q4 -12 14.5 -33t20.5 -35q31 -43 57 -70q25 -18 49 -22l70 20l80 9l37 -2l41 -5 l45 -77l-137 -7q-49 0 -80 -10q-61 -14 -94 -52t-33 -97q0 -31 12 -55.5t38 -44t58 -31.5l64 -9q66 0 124 22.5t128 74.5l45 41l53 57v-109q0 -13 -29 -36l-73 -52q-61 -41 -131 -61q-29 -8 -67 -14.5t-71 -6.5q-51 0 -95 15.5t-86 47.5t-62.5 74t-20.5 83q0 33 12.5 66.5 t38.5 66.5l21 20l33 27q-18 8 -31.5 18t-30.5 29q-29 31 -63 76q-12 18 -23 37q-2 4 -18 38q-6 18 -10.5 37t-4.5 41zM508 973v84h41v-84h-41z" />
<glyph unicode="&#xe9;" horiz-adv-x="1032" d="M0 973v84h1036v-80h-147v-977h-109v457l-381 -205l62 -105l2 -18l2 -10q0 -14 -4 -21.5t-8 -9.5l-17 -4l-20 -2l-29 2q-18 0 -37 8l-47 12l-55 25l-37 18q-16 10 -27 23l-14 20l-4 23q0 16 12 34.5t31 35.5l8 6l14 8l496 211l-37 41l-28 33q-35 41 -74 69q-33 31 -60 43 l-30 13l-33 8l-37 4l-33 2l-49 -2l-45 -6l-18 -4l-23 -7l8 -147l-6 -23l-6 -12l-14 -12l-17 -4l-20 4l-27 16l-31 27l-34 37l-31 39l-21 26l-6 9l-12 20l-4 20q0 25 29 48q8 4 34.5 15t53.5 19l120 21l132 8q53 0 78.5 -3t50.5 -13q10 -4 24 -13.5t33 -27.5q37 -31 88 -88 l41 -50l57 -65v420h-780z" />
<glyph unicode="&#xea;" horiz-adv-x="983" d="M0 973v84h999v-84h-219v-213h-432q-49 0 -72.5 -29t-23.5 -82q0 -43 24.5 -80t75.5 -67q35 -20 94 -41q25 -6 49.5 -10.5t53.5 -4.5q61 0 105 11.5t62.5 18.5t49.5 26l35 22l39 33l80 -61l-76 -52l-64 -32v-232h-411q-23 0 -41 -10q-14 -4 -35 -25l-23 -34l-6 -41 q0 -49 25.5 -85t87.5 -69q41 -18 88 -31q33 -6 49 -8t53 -2q31 0 55.5 5t44 11.5t38.5 14.5l94 43q37 18 53 35l72 -64l-62 -43l-86 -43q-25 -10 -39 -14t-55 -12.5t-57.5 -10.5t-53.5 -2q-68 0 -93 3t-81.5 15.5t-116 49.5t-90.5 92q-31 49 -30 119q0 37 11 67.5t32.5 55 t55.5 39t65 14.5l356 2v133l-47 -10l-33 -2h-25h-16q-82 0 -133 11t-82 22.5t-61 27.5q-66 37 -103 90q-33 59 -33 125q0 45 12.5 81t39 57.5t61.5 34t76 12.5l344 2v137h-680z" />
<glyph unicode="&#xeb;" horiz-adv-x="983" d="M0 973v84h999v-84h-219v-213h-432q-47 0 -75.5 -29t-28.5 -82q0 -43 20 -84q20 -33 65.5 -62.5t100.5 -45.5q31 -6 57.5 -10.5t61.5 -4.5q57 0 101 10.5t64.5 17.5t47.5 26l33 20l36 35l76 -64l-63 -43l-64 -32v-232h-465q-20 0 -36.5 -8t-34.5 -27l-23 -34l-8 -41 q0 -49 27 -90q29 -37 86 -68q16 -8 41.5 -17.5t69.5 -19.5t108 -10l84 6l69 18q41 14 61.5 42t20.5 61q0 23 -7 40t-21 36l-13 8l-18 10l67 66l29 -35l23 -23q20 -23 32.5 -49.5t12.5 -44.5q0 -59 -29 -102q-25 -43 -82 -70q-41 -20 -96 -30.5t-84 -11.5t-45 -1 q-90 0 -169 19.5t-142.5 54.5t-98.5 91t-35 124q0 31 12.5 62.5t37 58t53.5 41.5q37 14 65 14l408 2v133q-39 -12 -78 -18l-78 -5q-61 0 -84.5 3.5t-60.5 13.5q-61 16 -119.5 51t-89.5 91.5t-31 127.5q0 49 15 80q12 35 37.5 55.5t63.5 35t81 14.5l344 2v137h-680z" />
<glyph unicode="&#xec;" horiz-adv-x="1079" d="M0 973v84h1075v-84h-164v-234h-458l-17 -6l-4 -10l2 -12l4 -9l25 -30l41 -41l28 -25l31 -16l35 -8l39 -2l35 2l45 6l92 14l51 4q41 0 66.5 -10t39 -25.5t19.5 -42.5l6 -55q0 -59 -28.5 -104t-90.5 -82q-10 -6 -35.5 -16.5t-68.5 -24.5q-55 -12 -117 -13h-30h-27 q-18 4 -27 5l-75 16l-29 8l-31 12l31 -51l26 -35q12 -16 32 -35.5t32 -29.5q27 -16 55 -21l43 2l51 11l111 22l59 8q27 0 46 -10q23 -6 40 -22.5t31 -40.5q6 -14 10 -45q0 -59 -28 -109q-23 -47 -82 -84q-47 -31 -109 -45q-29 -8 -56.5 -12t-68.5 -4q-106 0 -207.5 31.5 t-199.5 97.5l-74 55l-86 74l64 73q47 -47 81 -73q16 -14 40 -28.5t30 -18.5q94 -61 182 -92t170 -31q43 0 86 12q16 4 39 14.5t41 20.5q37 23 54.5 48.5t21.5 57.5q-2 14 -5 22.5t-7 12.5l-19 8l-26 4l-37 -8l-103 -20l-61 -13l-51 -2q-39 0 -79 18.5t-85 60.5t-65.5 88 t-20.5 85v9l2 12v8l4 10l-65 41l-68 47l-35 25l-33 24l-32 23l-31 25l59 86l86 -78l70 -53q98 -66 186 -99t162 -33h33q27 6 47 10.5t31.5 9.5t36.5 17q51 23 74.5 52.5t23.5 66.5q0 14 -3 22.5t-16 14.5l-22 6l-29 2l-43 -4l-63 -14l-70 -15l-55 -4q-29 0 -70 21 q-37 23 -87 64.5t-83 84.5q-25 41 -24 74l6 41q6 18 22 29l33 16l39 6l381 2v154h-805z" />
<glyph unicode="&#xed;" horiz-adv-x="788" d="M0 973v84h801v-84h-164v-213h-334l-33 -6l-22 -2q-23 -6 -38 -24.5t-17 -49.5q0 -29 9 -49.5t31 -44.5l27 -25l21 -8l92 29l8 -2l10 2h8h9l14 2h10h8h13l8 -2h10l18 -2h15l49 -86h-18l-21 4h-12l-13 2h-14h-14h-29.5t-42.5 -9l-57 -18q-29 -16 -51 -49q-16 -33 -17 -72 q0 -33 2 -48t17.5 -45t50.5 -52l57 -23l72 -8l35 2l22 6l-4 8v11v12v16q0 29 4 43l15 35q12 20 32 33q25 10 54 10q23 0 38 -7t28 -21.5t20 -34.5l6 -41l-6 -41l-19 -35q-14 -16 -29 -25l-34 -8l106 -184l-90 -49l-92 209l-8 -7l-19 -2l-28 -4h-31q-70 0 -116 11.5t-81 31.5 q-53 31 -84 84q-6 12 -16 47t-10 80q0 25 4 37l14 41l33 49l12 21l-39 26l-26 21q-33 33 -50 63q-8 16 -12 30.5t-4 35.5q0 43 11.5 72.5t32 45t34.5 21.5t33.5 12.5t36 7.5t24.5 1l272 2v133h-532z" />
<glyph unicode="&#xee;" horiz-adv-x="1007" d="M-188 748q47 6 71 16l56 14l145 25q66 8 91.5 9t39.5 1q33 0 65.5 -2t61.5 -8q57 -6 101 -28.5t71 -61.5q6 -10 16.5 -34t10.5 -56q0 -59 -22.5 -99.5t-65.5 -66.5q-31 -16 -86 -33q-45 -8 -72 -9t-43 -1q12 -43 32.5 -76t51.5 -58.5t70 -41.5q37 -12 81 -13 q45 0 92.5 18.5t98.5 57.5l35 31l43 47v594h-756v84h1008v-84h-144v-973h-108v260q-8 -12 -17 -16l-34 -23q-63 -37 -119 -55q-27 -8 -53.5 -12t-57.5 -4q-76 0 -135 25.5t-107.5 81.5t-78.5 122q-25 61 -25 123l47 -13l60 -4l73 7q37 6 64.5 21t45 42t17.5 59 q0 33 -15 55.5t-50 39.5l-72 20l-86 8l-94 -6l-105 -18q-78 -16 -123 -33q-49 -12 -77 -27z" />
<glyph unicode="&#xef;" horiz-adv-x="1079" d="M0 973v84h1075v-84h-164v-185h-458l-15 -6l-4 -6l2 -10l13 -14l18 -21l29 -24l39 -27l28 -18l25 -11l24 -2l37 2l43 6l107 19l55 6l57 -6q23 -6 40.5 -19.5t28.5 -41t11 -62.5q0 -47 -15 -80t-52 -65l-29 -23l-39 -23v-206h-453q-20 0 -38 -9l-35 -18l-23 -29l-8 -34 q0 -55 30.5 -99.5t96.5 -72.5l51 -19l76 -18q0 23 -4 34l-2 31q0 33 7 56.5t26.5 46t61.5 38t93 15.5q45 0 78 -10q37 -6 68 -25q31 -14 45 -37.5t18 -60.5q0 -49 -21.5 -84t-68.5 -58q-39 -16 -87 -25t-103 -9q-111 0 -196 19t-145.5 60t-93 98.5t-32.5 131.5q0 27 12 52.5 t36.5 48t57.5 34.5t66 12l383 2v97l-13 -5l-28 -2l-33 -2h-23l-73 2q-16 0 -28.5 2.5t-39.5 8.5l-70 18l-71 33l-94 47q-41 20 -58 35l-76 53l-65 64l59 77l82 -77l70 -52q86 -57 180 -96q94 -33 172 -33q41 0 74 9q39 6 74 26q51 23 74.5 52.5t23.5 68.5q0 14 -3 22.5 t-16 14.5l-22 6l-29 2l-43 -4l-63 -14l-70 -15l-55 -4q-33 0 -64.5 14.5t-46 22.5t-47.5 31q-51 37 -80 73q-6 8 -16 30t-10 42l6 39q6 16 20 29l33 14l41 6l381 2v109h-805zM643 -143h10l17 -2h10l10 -2h10h11q35 0 51 4q25 0 39 8q18 6 32.5 23.5t14.5 39.5q0 17 -8 25 l-21 8q-16 0 -45 -12l-63 -39l-29 -21z" />
<glyph unicode="&#xf0;" horiz-adv-x="983" d="M0 973v84h999v-84h-219v-213h-432q-47 0 -75.5 -29t-28.5 -82q0 -43 20 -84q20 -33 65.5 -62.5t100.5 -45.5q31 -6 57.5 -10.5t61.5 -4.5q61 0 104 36t74 106l16 57l17 84l78 -25q0 -39 -4 -59l-3 -53q0 -27 -8 -49l-10 -41l-6 -6l-6 -13l-8 -18l-7 -25l-4 -10l-2 -16 v-230h-465q-20 0 -36.5 -8t-34.5 -27l-23 -34l-8 -41q0 -49 27 -90q29 -37 86 -68q16 -8 41.5 -17.5t69.5 -19.5t108 -10l84 6l69 18q41 14 61.5 42t20.5 61q0 23 -7 40t-21 36l-13 8l-18 10l67 66l29 -35l23 -23q20 -23 32.5 -49.5t12.5 -44.5q0 -59 -29 -102 q-25 -43 -82 -70q-41 -20 -96 -30.5t-84 -11.5t-45 -1q-90 0 -169 19.5t-142.5 54.5t-98.5 91t-35 124q0 31 12.5 62.5t37 58t53.5 41.5q37 14 65 14l408 2v133q-39 -12 -78 -18l-78 -5q-61 0 -84.5 3.5t-60.5 13.5q-61 16 -119.5 51t-89.5 91.5t-31 127.5q0 49 15 80 q12 35 37.5 55.5t63.5 35t81 14.5l344 2v137h-680z" />
<glyph unicode="&#xf1;" horiz-adv-x="491" d="M41 207q0 45 14 76q10 31 41 57.5t62.5 38.5t72.5 12q39 0 74 -12t62.5 -38t42 -60.5t14.5 -73.5q0 -43 -14 -78q-12 -29 -42 -55.5t-63 -38.5t-74 -12t-71.5 11t-60 34.5t-44 60.5t-14.5 78zM127 203l6 -43q6 -16 21 -35l30 -23l47 -8l43 8q18 6 33 23l21 35l8 43 q0 25 -8 43l-19 35q-12 16 -35 24l-43 8q-27 0 -44 -8t-33 -26l-21 -35z" />
<glyph unicode="&#xf2;" />
<glyph unicode="&#xf3;" horiz-adv-x="1376" d="M0 973v84h1376v-80h-147v-977h-109v403l-293 -268l-79 66l305 248l-6 2l-7 4l-8 2l-6 4q-31 16 -68 24l-73 9l-58 -5l-65 -12l-51 -14l-23 -8l-51 94l47 8l37 6l90 15l66 4h12h12l10 -2h13q14 -2 18 -5l14 -2l-28 52l-21 30q-35 35 -91 56.5t-120 21.5l-45 -4 q-27 0 -53 -8q-10 -2 -12 -4l-15 -2q0 -45 -12 -86t-37 -78q-25 -31 -57 -51q-33 -16 -72 -17l-22 2l-27 4l127 -192l55 -72l68 -78l31 -34l43 -43l-84 -70q-25 10 -99 104l-188 271l-61 92l-58 94l-37 64l-37 65l89 58l59 -115q16 -39 48 -55.5t73 -16.5l45 6q18 6 26 21 l15 30l4 44l-2 30v23v258h-461zM567 801q18 0 29 4q14 0 22 4l56 8l39 4q88 0 157.5 -33.5t124.5 -107.5l33 -59l37 -82l55 -35v469h-553v-172z" />
<glyph unicode="&#xf4;" horiz-adv-x="1304" d="M0 973v84h1296v-84h-565v-260l49 35l66 30l74 19l73 8q49 0 84 -10.5t61.5 -31t44 -55t17.5 -81.5q0 -45 -13 -81t-40 -73l-17 -16l-14 -15l-76 54l11 6l8 10q20 23 32.5 53.5t12.5 61.5q0 23 -10 41q-4 16 -21.5 31.5t-42.5 25.5l-43 8q-29 0 -66.5 -15.5t-93.5 -49.5 l-43 -27l-53 -39v-207l51 25l29 12l76 27l61 10q57 0 99.5 -13.5t72.5 -43.5q29 -23 46.5 -64t17.5 -86q0 -53 -24.5 -104.5t-74.5 -94.5l-41 -30l-57 -33l-55 72l43 24l31 23q37 31 55 67.5t18 75.5q0 37 -10 60q-6 25 -25.5 37t-44.5 18l-55 8q-23 0 -63 -12l-76 -37 l-33 -21l-41 -28v-287h-106v209q-8 -12 -29 -25l-64 -32q-49 -25 -91 -37.5t-72 -12.5q-29 0 -43.5 2t-49 14.5t-69.5 44.5t-53.5 72.5t-18.5 86.5q0 33 10.5 55t13.5 28.5t19 26.5l25 25l24 16l-39 29l-26 37l-17 39l-4 40q0 29 2 40.5t17.5 44t49.5 64.5t79 49.5t92 17.5 l47 -5l55 -12l13 -4l16 -6l41 -90l-33 6l-22 6l-62 12l-41 4q-35 0 -57.5 -9t-46.5 -34q-16 -16 -33 -45q-6 -14 -10 -49q0 -31 17.5 -52t53.5 -38l31 6l33 2l37 -2l55 -6l51 -6l33 -2l41 -94l-22 4l-56 12l-63 10l-43 4q-37 0 -66 -10q-31 -6 -55.5 -23.5t-37.5 -42 t-13 -57.5q0 -27 7 -48t28 -40q14 -16 43 -26l63 -9q35 0 77 13.5t85 46.5l57 41l21 26v656h-625z" />
<glyph unicode="&#xf5;" horiz-adv-x="12" d="M-774 1327l76 84l379 -354h-52zM-547 1520l96 53l328 -516h-72zM-260 1456q0 45 15.5 77t50 57.5t72.5 37.5t85 12l57 -6l56 -18v-82l-17 4l-14 6l-41 8l-39 4q-31 0 -54.5 -10t-39.5 -27.5t-27.5 -45t-11.5 -62.5q0 -31 2 -45t15.5 -52t48.5 -91l28 -39l39 -47l-78 2 q-6 4 -11 8t-17 20l-47 74q-8 14 -26.5 54t-27.5 59q-18 55 -18 102zM-53 1315v115h125v-115h-125z" />
<glyph unicode="&#xf6;" horiz-adv-x="1007" d="M-2 193q0 27 8 44t31 39q20 16 39.5 24.5t54.5 12.5l27 -4l26 -12l23 -18l18 -27l70 -150l237 125q-31 0 -59.5 2t-53 7.5t-42 8.5t-41.5 15q-98 37 -147.5 109.5t-49.5 177.5q0 57 13.5 98t43 77t67.5 52.5t81 16.5l332 2v180h-676v84h1004v-84h-220v-260h-399 q-68 0 -104 -43q-33 -43 -33 -123q0 -57 21.5 -101.5t62.5 -77t96 -55.5q27 -8 51.5 -12t61.5 -4l20 2l31 4l24 4l13 2l-2 19q0 16 10 37q14 53 43 82.5t68 29.5q23 0 38 -7t28 -20.5t20 -31.5l6 -37q0 -27 -7.5 -49.5t-22.5 -46t-38 -37.5q-14 -6 -45 -10l4 -27l4 -21 l10 -51l15 -45l24 -59l35 -55l21 -29l20 -23h-121l-37 84l-24 60q-16 35 -27 80l-8 73l-326 -172l41 -88l7 -12l2 -8l-5 -8l-10 -11q-23 0 -35 4l-69 23q-14 6 -29 10q-25 10 -43 19.5t-24 19.5v10l6 15l12 14l68 33l-72 157l-21 23l-26 8l-25 -6q-10 -2 -22 -14l-17 -21 l-4 -24l2 -13v-8l4 -6l4 -6l5 -6l6 -8l8 -7l6 -6l10 -8l-55 -25l-8 5l-4 6l-13 14l-8 14l-8 25z" />
<glyph unicode="&#xf7;" horiz-adv-x="759" d="M0 973v84h768v-84h-113v-260h-391l-14 -11l-4 -10l2 -20l10 -23l21 -35l36 -45l25 -26l27 -17l26 -8l35 -2l33 2q25 0 55 8l53 9l35 4q20 0 34.5 -4.5t29.5 -14.5l32 -22l21 -9l53 -16l51 -4l58 6q27 6 51 21l8 4l10 10v-102l-16 -2h-14l-17 -3h-12l-29 -4h-28h-29 q-16 0 -25 4l-12 3q-10 2 -12 4l-15 4l-12 8v-57q0 -53 -19.5 -96.5t-60.5 -78.5q-49 -43 -97 -65.5t-89 -22.5l94 -59l109 -47l-64 -80l-129 80l-31 18l-36 27l-33 27l-19 18l-49 2h-69q-25 2 -51.5 13.5t-43.5 33.5q-10 18 -14 55l6 31l19 31l26 18l33 9q20 0 31 -5 q14 0 30 -10l29 -16l31 -23l20 -22l27 -33l70 14q35 6 51 17q63 29 93 71.5t30 106.5q0 23 -4 31l-13 20l-18 12l-25 4l-35 -4l-47 -12l-47 -12l-28 -4l-46 6q-23 6 -45 19.5t-47 33.5l-45 47q-43 53 -67 98q-23 49 -23 84q0 29 11.5 47.5t31.5 30.5l29 11l37 4l305 2v176 h-549z" />
<glyph unicode="&#xf8;" horiz-adv-x="415" d="M68 551l20 16l18 13l37 30l25 31l16 31l15 41l10 41l4 32v431q0 35 3 48t15.5 45.5t44 74.5t74.5 63q18 8 38 14t50 6l27 -4l35 -6l168 2v-63h-164q-29 0 -40 -2t-41 -14.5t-60.5 -37t-49.5 -61.5q-14 -37 -14 -72v-422l-4 -34q0 -20 -8 -47q-4 -23 -6 -30t-11 -22 l-22 -37l-109 -65l21 -16l16 -9q25 -14 37 -28l27 -23l8 -14l12 -17l8 -22l11 -29l14 -55l6 -43v-418q0 -45 13.5 -75.5t41 -52t66.5 -34.5q25 -6 39 -8t45 -2h164v-80h-168q-66 0 -115 17q-47 12 -88 41.5t-62.5 81t-21.5 108.5v428q0 39 -9 71t-30.5 69.5t-48.5 62.5 q-23 25 -57 45z" />
<glyph unicode="&#xf9;" horiz-adv-x="1404" d="M0 973v84h1409v-84h-149v-973h-107v205h-334v-113l-2 -22q-2 -10 -4 -13l-16 -12l-21 -4q-20 0 -47 18.5t-71 62.5t-61 71.5t-22 48.5l3 16l10 12l16 6l25 7l80 2v172h-293h-64q-33 0 -59 8h-10q-10 2 -13 4l-16 6l-37 39l-24 35q-29 39 -48 84q-2 6 -8 36.5t-6 37.5 l6 36q6 14 23 29l30 16l37 7l432 2v176h-659zM246 674q0 -20 7 -39t28 -45l32 -37q8 -6 27 -10l479 2v-260h334v688h-385v-264h-487q-18 0 -24.5 -7.5t-10.5 -27.5z" />
<glyph unicode="&#x152;" horiz-adv-x="897" d="M152 467q0 70 24.5 131t74.5 111.5t115.5 77t129.5 26.5q72 0 134 -25.5t115.5 -75.5t80 -113.5t26.5 -131.5q0 -72 -23 -129t-69 -105q-43 -49 -105 -73q-27 -10 -60.5 -16.5t-70.5 -6.5q-76 0 -136 23.5t-117.5 69.5t-90.5 108q-29 61 -28 129zM256 401q0 -27 3 -39 t15.5 -35.5t47.5 -56.5q27 -20 69 -41q37 -12 80 -12q49 0 96 21.5t91 65.5t71 100.5t27 117.5q-1 43 -15 78q-12 35 -43 64q-25 27 -65 41q-18 6 -39 10t-45 4q-59 0 -115 -25q-47 -25 -94 -73q-41 -47 -62.5 -104.5t-21.5 -115.5z" />
<glyph unicode="&#x153;" />
<glyph unicode="&#x178;" horiz-adv-x="712" d="M0 973v84h805v-84h-805zM43 672v80h856v-80h-371q-41 0 -72.5 -14.5t-61 -39t-44 -59.5t-14.5 -70q0 -57 32.5 -123.5t96.5 -142.5l53 -61l78 -76l-64 -78l-86 90l-61 74q-72 94 -113 174q-37 80 -36 143q0 37 10 65t15 36t20 28l36 37l15 15z" />
<glyph unicode="&#x2c6;" horiz-adv-x="964" d="M180 846q0 33 7.5 57.5t27.5 50.5q14 18 39 35q25 12 53 12l318 3l47 -97h-303q-16 0 -39 -12q-18 -6 -31 -25l-20 -41q-6 -18 -7 -47q0 -27 15 -49l32 -53l17 -21l24 -24l273 2l51 -100h-260q-25 0 -45.5 -14.5t-34.5 -41.5l-22 -55l-7 -55q0 -45 14.5 -83t40 -65.5 t62.5 -48.5q39 -14 74 -14l49 8l-6 4l-2 4l-8 23l-2 26q0 27 7 44.5t22.5 32.5t39.5 26l41 8q25 0 44.5 -7t36.5 -21.5t26.5 -39t9.5 -51.5q0 -25 -10 -47q-6 -20 -25 -45l-24 -29l-21 -14l45 -72l53 -73l56 -72l55 -58l-82 -51l-23 33l-14 23l-37 59l-24 45l-23 41l-20 37 l-19 35l-14 37l-23 -7l-20 -6q-16 0 -25 -4h-20q-55 0 -117 31q-51 29 -115 92q-55 61 -86 123q-6 14 -16 51t-10 76q0 43 13 83t44 77l14 12l17 16l-43 49l-37 62l-25 63z" />
<glyph unicode="&#x2dc;" horiz-adv-x="1007" d="M-2 193q0 27 8 44t31 39q20 16 39.5 24.5t54.5 12.5l27 -4l26 -12l23 -18l18 -27l70 -150l237 125q-31 0 -59.5 2t-53 7.5t-42 8.5t-41.5 15q-98 37 -147.5 109.5t-49.5 177.5q0 57 13.5 98t43 77t67.5 52.5t81 16.5l332 2v180h-676v84h1004v-84h-220v-260h-399 q-68 0 -104 -43q-33 -43 -33 -123q0 -57 21.5 -101.5t62.5 -77t96 -55.5q27 -8 51.5 -12t61.5 -4l20 2l31 4l24 4l13 2l-2 19q0 16 10 37q14 53 43 82.5t68 29.5q23 0 38 -7t28 -20.5t20 -31.5l6 -37q0 -27 -7.5 -49.5t-22.5 -46t-38 -37.5q-14 -6 -45 -10l4 -27l4 -21 l10 -51l15 -45l24 -59l35 -55l21 -29l20 -23h-121l-37 84l-24 60q-16 35 -27 80l-8 73l-326 -172l41 -88l7 -12l2 -8l-5 -8l-10 -11q-23 0 -35 4l-69 23q-14 6 -29 10q-25 10 -43 19.5t-24 19.5v10l6 15l12 14l68 33l-72 157l-21 23l-26 8l-25 -6q-10 -2 -22 -14l-17 -21 l-4 -24l2 -13v-8l4 -6l4 -6l5 -6l6 -8l8 -7l6 -6l10 -8l-55 -25l-8 5l-4 6l-13 14l-8 14l-8 25z" />
<glyph unicode="&#x2000;" horiz-adv-x="820" />
<glyph unicode="&#x2001;" horiz-adv-x="1640" />
<glyph unicode="&#x2002;" horiz-adv-x="820" />
<glyph unicode="&#x2003;" horiz-adv-x="1640" />
<glyph unicode="&#x2004;" horiz-adv-x="546" />
<glyph unicode="&#x2005;" horiz-adv-x="410" />
<glyph unicode="&#x2006;" horiz-adv-x="273" />
<glyph unicode="&#x2007;" horiz-adv-x="273" />
<glyph unicode="&#x2008;" horiz-adv-x="205" />
<glyph unicode="&#x2009;" horiz-adv-x="328" />
<glyph unicode="&#x200a;" horiz-adv-x="91" />
<glyph unicode="&#x2010;" horiz-adv-x="344" d="M104 0v135h144v-135h-144z" />
<glyph unicode="&#x2011;" horiz-adv-x="344" d="M104 0v135h144v-135h-144z" />
<glyph unicode="&#x2012;" horiz-adv-x="344" d="M104 0v135h144v-135h-144z" />
<glyph unicode="&#x2013;" horiz-adv-x="1007" d="M0 973v84h1028v-84h-223v-277h-377q-33 0 -56.5 -13t-45.5 -36l-33 -51q-6 -16 -10 -55q0 -94 44 -158t134 -96l74 -17l106 -8q-2 10 -4 12v11q0 20 -4 30l-2 23q0 31 4 45l18 41q10 16 34 27.5t52 11.5q20 0 37 -10q16 -6 30.5 -21.5t24.5 -40.5l9 -41 q0 -35 -10.5 -59.5t-28.5 -42.5l-17 -15l-24 -16l51 -113l35 -59l35 -47l14 -16l16 -23h-135l-55 109l-57 120l-17 -4h-14q-80 0 -146.5 12.5t-119.5 39.5q-92 43 -142 118q-45 80 -45 185q0 47 13.5 88t46.5 80q29 39 67.5 57t77.5 18l303 2v189h-688zM444 -274 q0 49 13.5 89t44 70.5t71.5 48.5q18 6 39 10.5t45 4.5h172v-84h-145q-27 0 -48.5 -8.5t-43 -30t-31.5 -41.5l-8 -51q0 -35 13.5 -64.5t41 -49t59 -32t70.5 -12.5q31 0 47 4q25 2 47 14l46 25q20 12 24 23l55 -80l-36 -21l-29 -14l-43 -14l-41 -13l-43 -6l-43 -2 q-55 0 -98 16q-43 12 -86 43t-68 77t-25 98z" />
<glyph unicode="&#x2014;" horiz-adv-x="1304" d="M0 973v84h1300v-84h-569v-309l37 34l25 21q35 25 73.5 38t69.5 13q63 0 110.5 -19.5t90.5 -58.5q37 -33 58.5 -83t21.5 -103q0 -55 -25 -114.5t-82 -135.5l-45 -55l-61 -68l-89 68q6 2 13.5 6t19.5 16q27 27 64 78q45 57 68.5 113.5t23.5 99.5q0 41 -8.5 65.5t-13.5 35 t-18 26.5t-45 30.5t-71 14.5q-45 0 -82 -21.5t-73 -68.5q-27 -33 -48 -80q-6 -18 -10 -36.5t-4 -41.5v-438h-106v303q-35 -35 -85.5 -55.5t-105.5 -20.5q-57 0 -108.5 19.5t-97.5 60.5t-68 90q-20 55 -21 113q0 59 19.5 108.5t63.5 89.5t93 60q23 8 50.5 14t56.5 6l55 -6 q37 -8 55 -16v-86l-49 16l-45 6q-37 0 -68.5 -13t-62.5 -40q-20 -20 -41 -61q-14 -37 -14 -74t12 -77t38 -69.5t58 -48.5q37 -14 72 -14q37 0 64.5 11.5t56.5 35.5l27.5 27.5t25.5 30.5q18 29 19 53v510h-625zM352 -219q0 51 13.5 88t42 66.5t71.5 50.5q18 6 39 10t45 4h168 v-80h-139q-27 0 -48.5 -8t-42 -28.5t-32.5 -45.5l-8 -51q0 -37 14 -63q12 -31 41 -50q16 -10 28.5 -17t39 -15.5t63.5 -8.5q51 0 90 17q37 12 72 43l51 -80l-35 -21l-28 -14q-43 -16 -83 -24.5t-57.5 -9.5t-27.5 -1q-55 0 -99 17q-45 12 -86 45t-69 80q-23 45 -23 96z" />
<glyph unicode="&#x2018;" />
<glyph unicode="&#x2019;" horiz-adv-x="759" d="M0 973v84h756v-84h-148q25 -25 43 -55l33 -60l18 -63l9 -66q0 -76 -29 -139q-25 -63 -79 -122.5t-121.5 -88.5t-145.5 -29l340 -282l-72 -72l-491 416l71 71l68 -55l12 -4h12l54 2q31 4 57.5 12t56.5 25l64 43l49 51l33 55l10 43l4 60l-31 -27l-24 -18q-35 -25 -70 -37 q-20 -6 -63 -10q-53 0 -92 15t-73 47t-56 73q-16 39 -17 82q0 37 13.5 66.5t44.5 64.5zM289 850q0 -29 9 -54.5t27.5 -44t44 -29.5t58.5 -11q35 0 65.5 13t59.5 42l16 22l23 33l-19 43q-6 20 -16 33q-23 35 -60.5 56.5t-76.5 21.5q-35 0 -55 -10q-23 -6 -41.5 -25.5 t-26.5 -42.5z" />
<glyph unicode="&#x201a;" horiz-adv-x="440" d="M-219 1470l106 3q0 -51 16.5 -88t51.5 -70q27 -20 70 -41q18 -6 38.5 -10t45.5 -4q43 0 79.5 12t69.5 38.5t51.5 67.5t18.5 92l106 3q-6 -64 -31 -119q-20 -49 -62 -89t-104.5 -61.5t-130.5 -21.5t-125 19.5t-97 58t-65.5 88t-37.5 122.5zM-20 973v84h507v-84h-198v-973 h-109v973h-200z" />
<glyph unicode="&#x201c;" horiz-adv-x="1011" d="M8 866q0 47 13.5 81t45 59.5t68.5 38t80 12.5q39 0 76 -12.5t64.5 -35t42 -58.5t14.5 -74v-277h321v373h-201v84h508v-84h-198v-973h-109v512h-321v-164v-22l-2 -13l-17 -14l-20 -4q-20 0 -54 25.5t-90 82.5l-77 93q-23 35 -27 55l6 16l16 17l19 10l14 4l123 2v287 q0 20 -7 35.5t-20.5 29t-29 19.5t-35.5 6q-18 0 -41 -8l-35 -19l-22 -32l-9 -44l2 -28l11 -31l4 -14l10 -19l-102 2l-9 15l-2 12l-8 29z" />
<glyph unicode="&#x201d;" />
<glyph unicode="&#x201e;" horiz-adv-x="897" d="M125 969l51 12l86 18l88 15l66 4q80 0 144.5 -27.5t127.5 -87.5q57 -53 87 -121.5t30 -140.5q0 -53 -19 -109q-20 -51 -53 -94q-12 -14 -35.5 -37.5t-42.5 -38.5q-37 -27 -84 -45l47 -98q23 -43 58 -90l67 -86l80 -80l-88 -43l-69 92l-58 88l-57 99l-43 98l-57 -2l-89 6 q-35 6 -68.5 26.5t-52 52.5t-18.5 79q0 23 7.5 41t27.5 32l39 25l47 8q33 0 60.5 -15t58.5 -52l20 -29l25 -39l37 14l28 15q76 41 112 94t36 121q0 61 -23 104q-18 47 -63 80q-33 25 -88 41q-23 6 -49.5 10t-57.5 4q-53 0 -73.5 -3t-67.5 -15t-98 -49z" />
<glyph unicode="&#x2022;" />
<glyph unicode="&#x2026;" horiz-adv-x="823" d="M172 1004h324q47 0 84.5 -19.5t72.5 -54.5q27 -33 47 -80q16 -45 17 -92q0 -37 -12 -78q-4 -14 -13.5 -33.5t-21.5 -36.5l-21 -22l-28 -27q20 -14 38.5 -37.5t30.5 -50.5t19 -59l6 -58q0 -45 -9.5 -76.5t-17.5 -50t-20 -36.5q-27 -33 -60 -56q-29 -16 -76 -26l13 -23 l22 -33l31 -37l35 -38l33 -39l41 -43l36 -35l21 -19l-76 -63l-26 33l-19 22l-47 60l-33 45l-33 51l-20 33l-29 43l-10 22l-57 2l-80 2q-39 6 -62.5 18.5t-46.5 41.5q-16 29 -16 71q0 18 7 36t24 32l32 20l39 9q20 0 46 -11.5t63 -38.5l22 -22l29 -29q14 0 35 10l53 33 q39 27 56.5 54.5t17.5 56.5q0 23 -8 45l-19 51l-22 41l-13 14l-223 2l-76 105h248l35 16l27 19q29 23 43 52.5t18 65.5q0 33 -10 55.5t-34 36t-58 19.5l-80 8l-64 -4q-37 0 -75 -8l-64 -10q-20 -2 -27 -9z" />
<glyph unicode="&#x202f;" horiz-adv-x="328" />
<glyph unicode="&#x2039;" horiz-adv-x="915" d="M113 651h239l-14 6l-12 11l-9 8l-8 8q-18 23 -35 59q-10 37 -10 74q0 55 21.5 96t59.5 59.5t83 26.5l109 9h122l17 -101l-37 2q-18 0 -27 4l-65 7l-51 2q-31 0 -65 -11.5t-57.5 -33t-36.5 -49t-13 -62.5q0 -27 8 -41t17 -25.5t20 -19.5l18 -14l29 -17l389 2l18 -102h-323 q-25 0 -51.5 -19.5t-65.5 -64.5q-27 -35 -51 -80q-8 -18 -12.5 -35.5t-4.5 -40.5q0 -51 15.5 -85t42 -48t61.5 -20l86 -6l72 2q55 0 80.5 -2.5t62.5 -14.5q61 -12 95 -37.5t51.5 -58.5t17.5 -72l-6 -35q-2 -14 -14 -28l-21 -15l-31 -20l-39 31l29 16l12 6q8 6 15 21l4 28 q-2 10 -4 13l-15 10l-22 10l-29 10q-31 12 -73 19l-89 6q-37 0 -71.5 2t-62 8t-54.5 14.5t-47 20.5q-68 37 -105 113q-33 78 -32 186q0 35 9 66.5t28 56.5l14 18l24 23l-180 -2z" />
<glyph unicode="&#x203a;" horiz-adv-x="12" d="M-774 1327l76 84l379 -354h-52zM-547 1520l96 53l328 -516h-72zM-260 1456q0 45 15.5 77t50 57.5t72.5 37.5t85 12l57 -6l56 -18v-82l-17 4l-14 6l-41 8l-39 4q-31 0 -54.5 -10t-39.5 -27.5t-27.5 -45t-11.5 -62.5q0 -31 2 -45t15.5 -52t48.5 -91l28 -39l39 -47l-78 2 q-6 4 -11 8t-17 20l-47 74q-8 14 -26.5 54t-27.5 59q-18 55 -18 102zM-53 1315v115h125v-115h-125z" />
<glyph unicode="&#x205f;" horiz-adv-x="410" />
<glyph unicode="&#x2122;" horiz-adv-x="593" d="M0 973v84h827v-80zM39 702q0 25 29 48q8 4 34.5 15t53.5 19l120 21l132 8q53 0 78.5 -3t50.5 -13q10 -4 24 -13.5t33 -27.5q37 -31 88 -88l41 -50l57 -65v-96l-381 -205l62 -105l2 -18l2 -10q0 -14 -4 -21.5t-8 -9.5l-17 -4l-20 -2l-29 2q-18 0 -37 8l-47 12l-55 25 l-37 18q-16 10 -27 23l-14 20l-4 23q0 16 12 34.5t31 35.5l8 6l14 8l496 211l-37 41l-28 33q-35 41 -74 69q-33 31 -60 43l-30 13l-33 8l-37 4l-33 2l-49 -2l-45 -6l-18 -4l-23 -7l8 -147l-6 -23l-6 -12l-14 -12l-17 -4l-20 4l-27 16l-31 27l-34 37l-31 39l-21 26l-6 9 l-12 20z" />
<glyph unicode="&#x25fc;" horiz-adv-x="1054" d="M0 0v1055h1055v-1055h-1055z" />
</font>
</defs>
</svg>
